<svg xmlns="http://www.w3.org/2000/svg" xmlns:xlink="http://www.w3.org/1999/xlink" width="192.537" height="77.619" viewBox="0 0 192.537 77.619">
  <defs>
    <filter id="Path_1" x="9.172" y="14.23" width="58.895" height="63.159" filterUnits="userSpaceOnUse">
      <feOffset dx="1" dy="7" input="SourceAlpha"/>
      <feGaussianBlur stdDeviation="2.5" result="blur"/>
      <feFlood flood-color="#030504" flood-opacity="0.31"/>
      <feComposite operator="in" in2="blur"/>
      <feComposite in="SourceGraphic"/>
    </filter>
    <clipPath id="clip-path">
      <rect id="Rectangle_10" data-name="Rectangle 10" width="18.875" height="15.484" fill="#2abc4f"/>
    </clipPath>
  </defs>
  <g id="Group_51" data-name="Group 51" transform="translate(105.174 328.004)">
    <g id="Group_50" data-name="Group 50" transform="translate(-12.719 -12)">
      <g transform="matrix(1, 0, 0, 1, -92.46, -316)" filter="url(#Path_1)">
        <path id="Path_1-2" data-name="Path 1" d="M194.327,235.3v14.158c0,13.774,8.276,26.6,21.947,34h0c13.671-7.405,21.947-20.227,21.947-34V235.3Z" transform="translate(-178.66 -220.57)" fill="#00273b"/>
      </g>
      <g id="Group_29" data-name="Group 29" transform="translate(-92.455 -316.004)">
        <g id="Group_14" data-name="Group 14" transform="translate(32.102 0.128)">
          <path id="Path_2" data-name="Path 2" d="M301.176,183.09a29.855,29.855,0,0,1,8.988,8.061,36.126,36.126,0,0,1,5.6,11.205,39.378,39.378,0,0,1,1.636,12.672,36.11,36.11,0,0,1-2.571,12.478c-.408.975-.856,1.929-1.348,2.854s-1.042,1.813-1.624,2.674-1.218,1.675-1.881,2.459a29.713,29.713,0,0,1-2.111,2.221,31.463,31.463,0,0,1-10.079,6.352c-1.836.708-3.688,1.357-5.513,2.089a56.634,56.634,0,0,0-5.384,2.432,30.285,30.285,0,0,0-5.007,3.208,16.6,16.6,0,0,0-2.157,2.092,10.4,10.4,0,0,0-1.628,2.549.268.268,0,0,1-.372.144.321.321,0,0,1-.131-.409l.005-.012a11.35,11.35,0,0,1,1.8-2.62,16.878,16.878,0,0,1,2.27-2.073,30.725,30.725,0,0,1,5.119-3.125c1.779-.877,3.6-1.652,5.432-2.359s3.695-1.34,5.534-2.026a30.284,30.284,0,0,0,10.055-6.318,29.712,29.712,0,0,0,2.093-2.224q.986-1.177,1.863-2.459t1.6-2.67c.486-.924.927-1.875,1.329-2.847s.74-1.973,1.043-2.987c.076-.253.142-.51.214-.765l.105-.383.094-.387.187-.773.164-.78a38.737,38.737,0,0,0,.75-6.343,39.23,39.23,0,0,0-1.594-12.628,36.042,36.042,0,0,0-5.549-11.192A29.956,29.956,0,0,0,301.176,183.09Z" transform="translate(-277.565 -179.12)" fill="#3a424a"/>
          <g id="Group_1" data-name="Group 1" transform="translate(22.111)">
            <path id="Path_3" data-name="Path 3" d="M402.764,195.385a1.564,1.564,0,0,0,1.528-.827s-2.311-1.918-3.938-1.647a7.661,7.661,0,0,0-2.719,1.117A25.188,25.188,0,0,0,402.764,195.385Z" transform="translate(-397.635 -186.929)" fill="#3a424a"/>
            <path id="Path_4" data-name="Path 4" d="M419.671,168.924c.371,1.386-.348,1.935-.348,1.935a12.164,12.164,0,0,1-2.747-3.92,22.869,22.869,0,0,1-.767-3.424S419.193,167.139,419.671,168.924Z" transform="translate(-412.461 -163.515)" fill="#3a424a"/>
          </g>
          <g id="Group_2" data-name="Group 2" transform="translate(27.175 5.04)">
            <path id="Path_5" data-name="Path 5" d="M429.639,219a1.464,1.464,0,0,0,1.609-.452s-1.786-2.377-3.358-2.478a6.971,6.971,0,0,0-2.756.473A23.892,23.892,0,0,0,429.639,219Z" transform="translate(-425.134 -210.443)" fill="#3a424a"/>
            <path id="Path_6" data-name="Path 6" d="M452.275,194.451c.07,1.423-.718,1.791-.718,1.791a12.245,12.245,0,0,1-1.774-4.4,22.669,22.669,0,0,1,.013-3.469S452.186,192.617,452.275,194.451Z" transform="translate(-445.194 -188.369)" fill="#3a424a"/>
          </g>
          <g id="Group_3" data-name="Group 3" transform="translate(31.082 11.325)">
            <path id="Path_7" data-name="Path 7" d="M450.185,246.43a1.393,1.393,0,0,0,1.632-.064s-1.273-2.725-2.752-3.185a6.593,6.593,0,0,0-2.713-.175A24.368,24.368,0,0,0,450.185,246.43Z" transform="translate(-446.352 -238.157)" fill="#3a424a"/>
            <path id="Path_8" data-name="Path 8" d="M474.612,225.834c-.2,1.4-1.022,1.574-1.022,1.574a12.532,12.532,0,0,1-.869-4.688,21.941,21.941,0,0,1,.692-3.357S474.867,224.031,474.612,225.834Z" transform="translate(-467.842 -219.363)" fill="#3a424a"/>
          </g>
          <g id="Group_4" data-name="Group 4" transform="translate(33.864 18.554)">
            <path id="Path_9" data-name="Path 9" d="M464.571,276.077a1.382,1.382,0,0,0,1.6.325s-.77-2.962-2.121-3.759a6.639,6.639,0,0,0-2.593-.808A26.053,26.053,0,0,0,464.571,276.077Z" transform="translate(-461.458 -268.423)" fill="#3a424a"/>
            <path id="Path_10" data-name="Path 10" d="M488.787,261.6c-.432,1.32-1.264,1.295-1.264,1.295a12.641,12.641,0,0,1-.03-4.78,20.463,20.463,0,0,1,1.274-3.106S489.344,259.9,488.787,261.6Z" transform="translate(-482.506 -255.01)" fill="#3a424a"/>
          </g>
          <g id="Group_5" data-name="Group 5" transform="translate(35.551 26.424)">
            <path id="Path_11" data-name="Path 11" d="M472.969,307.828c.744.956,1.515.7,1.515.7s-.279-3.087-1.467-4.188a7.128,7.128,0,0,0-2.4-1.407A28.34,28.34,0,0,0,472.969,307.828Z" transform="translate(-470.621 -301.085)" fill="#3a424a"/>
            <path id="Path_12" data-name="Path 12" d="M494.726,300.276c-.634,1.191-1.444.967-1.444.967a12.377,12.377,0,0,1,.744-4.69,18.428,18.428,0,0,1,1.76-2.735S495.542,298.741,494.726,300.276Z" transform="translate(-489.106 -293.819)" fill="#3a424a"/>
          </g>
          <g id="Group_6" data-name="Group 6" transform="translate(36.175 34.634)">
            <path id="Path_13" data-name="Path 13" d="M475.548,340.74c.583,1.118,1.378,1.051,1.378,1.051s.2-3.1-.791-4.465a7.993,7.993,0,0,0-2.127-1.953A30.6,30.6,0,0,0,475.548,340.74Z" transform="translate(-474.008 -335.156)" fill="#3a424a"/>
            <path id="Path_14" data-name="Path 14" d="M493.093,340.39c-.8,1.018-1.564.605-1.564.605s.383-3.023,1.454-4.428a16.225,16.225,0,0,1,2.154-2.263S494.129,339.077,493.093,340.39Z" transform="translate(-488.302 -334.304)" fill="#3a424a"/>
          </g>
          <g id="Group_7" data-name="Group 7" transform="translate(35.309 41.071)">
            <path id="Path_15" data-name="Path 15" d="M469.992,371.687c.4,1.238,1.19,1.363,1.19,1.363s.671-3-.094-4.577a9.091,9.091,0,0,0-1.787-2.428A32.277,32.277,0,0,0,469.992,371.687Z" transform="translate(-469.302 -366.044)" fill="#3a424a"/>
            <path id="Path_16" data-name="Path 16" d="M482.736,378.548c-.944.808-1.626.22-1.626.22s.837-2.88,2.1-4a14.264,14.264,0,0,1,2.457-1.709S483.952,377.506,482.736,378.548Z" transform="translate(-478.936 -371.634)" fill="#3a424a"/>
          </g>
          <g id="Group_8" data-name="Group 8" transform="translate(33.024 46.852)">
            <path id="Path_17" data-name="Path 17" d="M456.973,400.257a1.965,1.965,0,0,0,.954,1.622s1.129-2.782.623-4.516a10.191,10.191,0,0,0-1.378-2.813A32.967,32.967,0,0,0,456.973,400.257Z" transform="translate(-456.895 -394.55)" fill="#3a424a"/>
            <path id="Path_18" data-name="Path 18" d="M465.587,414.078a1.24,1.24,0,0,1-1.631-.173s1.273-2.626,2.687-3.428a12.86,12.86,0,0,1,2.673-1.091S466.945,413.347,465.587,414.078Z" transform="translate(-462.656 -406.377)" fill="#3a424a"/>
          </g>
          <g id="Group_9" data-name="Group 9" transform="translate(17.184 59.807)">
            <path id="Path_19" data-name="Path 19" d="M371.131,462.9a2.025,2.025,0,0,0-.065,1.889s2.426-1.548,2.928-3.25a10.144,10.144,0,0,0,.349-3.1A29.127,29.127,0,0,0,371.131,462.9Z" transform="translate(-370.877 -458.438)" fill="#3a424a"/>
            <path id="Path_20" data-name="Path 20" d="M373.04,487.36a1.417,1.417,0,0,1-1.14-1.3s2.591-1,4.168-.568a13.659,13.659,0,0,1,2.719,1.129S374.528,487.8,373.04,487.36Z" transform="translate(-371.711 -479.923)" fill="#3a424a"/>
          </g>
          <g id="Group_10" data-name="Group 10" transform="translate(11.262 62.683)">
            <path id="Path_21" data-name="Path 21" d="M339.191,476.419a2.141,2.141,0,0,0-.4,1.882s2.6-1.034,3.386-2.639a10.641,10.641,0,0,0,.884-3.045A28.228,28.228,0,0,0,339.191,476.419Z" transform="translate(-338.72 -472.617)" fill="#3a424a"/>
            <path id="Path_22" data-name="Path 22" d="M339.74,499.77a1.464,1.464,0,0,1-1.018-1.414s2.6-.812,4.106-.247a13.192,13.192,0,0,1,2.567,1.363S341.16,500.34,339.74,499.77Z" transform="translate(-338.72 -492.78)" fill="#3a424a"/>
          </g>
          <g id="Group_11" data-name="Group 11" transform="translate(28.234 52.223)">
            <path id="Path_23" data-name="Path 23" d="M430.887,426.582a2.139,2.139,0,0,0,.67,1.817s1.576-2.45,1.358-4.272a11.009,11.009,0,0,0-.9-3.09A32.519,32.519,0,0,0,430.887,426.582Z" transform="translate(-430.886 -421.038)" fill="#3a424a"/>
            <path id="Path_24" data-name="Path 24" d="M437.371,446.844a1.326,1.326,0,0,1-1.582-.563s1.693-2.264,3.213-2.709a12.225,12.225,0,0,1,2.8-.428S438.833,446.456,437.371,446.844Z" transform="translate(-434.886 -438.66)" fill="#3a424a"/>
          </g>
          <g id="Group_12" data-name="Group 12" transform="translate(23.425 56.487)">
            <path id="Path_25" data-name="Path 25" d="M404.883,447a2.25,2.25,0,0,0,.216,1.958s2.135-1.814,2.352-3.631a11.31,11.31,0,0,0-.157-3.259A30.2,30.2,0,0,0,404.883,447Z" transform="translate(-404.771 -442.065)" fill="#3a424a"/>
            <path id="Path_26" data-name="Path 26" d="M407.741,470.89a1.51,1.51,0,0,1-1.416-1.066s2.205-1.6,3.792-1.52a12.7,12.7,0,0,1,2.826.517S409.269,471.009,407.741,470.89Z" transform="translate(-406.039 -462.981)" fill="#3a424a"/>
          </g>
          <g id="Group_13" data-name="Group 13" transform="translate(14.693 0.387)">
            <path id="Path_27" data-name="Path 27" d="M363.7,168.523a5.89,5.89,0,0,0,2.724.464,5.529,5.529,0,0,0-3.382-2.693,31.372,31.372,0,0,0-5.693-.87S361.6,167.714,363.7,168.523Z" transform="translate(-357.351 -165.424)" fill="#3a424a"/>
          </g>
        </g>
        <g id="Group_28" data-name="Group 28">
          <path id="Path_28" data-name="Path 28" d="M136.613,182.461a29.849,29.849,0,0,0-8.988,8.061,36.119,36.119,0,0,0-5.6,11.2,39.373,39.373,0,0,0-1.636,12.671,36.111,36.111,0,0,0,2.57,12.478c.408.975.856,1.929,1.348,2.855s1.042,1.813,1.624,2.674,1.218,1.675,1.881,2.459a29.708,29.708,0,0,0,2.111,2.221,31.467,31.467,0,0,0,10.079,6.352c1.836.708,3.688,1.356,5.513,2.089a56.6,56.6,0,0,1,5.384,2.432,30.245,30.245,0,0,1,5.007,3.208,16.581,16.581,0,0,1,2.157,2.092,10.4,10.4,0,0,1,1.628,2.549.268.268,0,0,0,.372.144.321.321,0,0,0,.131-.409l-.005-.012a11.35,11.35,0,0,0-1.8-2.62,16.856,16.856,0,0,0-2.27-2.073,30.724,30.724,0,0,0-5.119-3.125c-1.779-.877-3.6-1.652-5.432-2.359s-3.695-1.34-5.534-2.026a30.281,30.281,0,0,1-10.055-6.318,29.68,29.68,0,0,1-2.093-2.224q-.987-1.177-1.863-2.459t-1.6-2.67c-.486-.924-.927-1.875-1.329-2.847s-.74-1.973-1.043-2.987c-.076-.253-.142-.51-.214-.765l-.106-.383-.094-.387-.187-.773-.164-.78a38.763,38.763,0,0,1-.75-6.343,39.229,39.229,0,0,1,1.594-12.628,36.045,36.045,0,0,1,5.549-11.192A29.946,29.946,0,0,1,136.613,182.461Z" transform="translate(-117.214 -178.491)" fill="#3a424a"/>
          <g id="Group_15" data-name="Group 15" transform="translate(13.583)">
            <path id="Path_29" data-name="Path 29" d="M182.106,194.756a1.564,1.564,0,0,1-1.528-.827s2.31-1.918,3.938-1.646a7.658,7.658,0,0,1,2.719,1.117A25.186,25.186,0,0,1,182.106,194.756Z" transform="translate(-179.919 -186.3)" fill="#3a424a"/>
            <path id="Path_30" data-name="Path 30" d="M177.106,168.294c-.37,1.385.349,1.935.349,1.935a12.162,12.162,0,0,0,2.747-3.92,22.875,22.875,0,0,0,.767-3.424S177.584,166.509,177.106,168.294Z" transform="translate(-177 -162.885)" fill="#3a424a"/>
          </g>
          <g id="Group_16" data-name="Group 16" transform="translate(8.749 5.04)">
            <path id="Path_31" data-name="Path 31" d="M157.634,218.367a1.464,1.464,0,0,1-1.608-.452s1.786-2.377,3.357-2.478a6.972,6.972,0,0,1,2.756.473A23.9,23.9,0,0,1,157.634,218.367Z" transform="translate(-155.054 -209.813)" fill="#3a424a"/>
            <path id="Path_32" data-name="Path 32" d="M150.75,193.821c-.07,1.423.718,1.791.718,1.791a12.249,12.249,0,0,0,1.774-4.4,22.663,22.663,0,0,0-.013-3.469S150.839,191.987,150.75,193.821Z" transform="translate(-150.745 -187.739)" fill="#3a424a"/>
          </g>
          <g id="Group_17" data-name="Group 17" transform="translate(5.127 11.325)">
            <path id="Path_33" data-name="Path 33" d="M139.964,245.8a1.393,1.393,0,0,1-1.632-.064s1.272-2.725,2.752-3.185a6.593,6.593,0,0,1,2.713-.175A24.36,24.36,0,0,1,139.964,245.8Z" transform="translate(-136.996 -237.527)" fill="#3a424a"/>
            <path id="Path_34" data-name="Path 34" d="M131.108,225.2c.2,1.4,1.023,1.574,1.023,1.574A12.531,12.531,0,0,0,133,222.09a21.928,21.928,0,0,0-.692-3.357S130.854,223.4,131.108,225.2Z" transform="translate(-131.079 -218.733)" fill="#3a424a"/>
          </g>
          <g id="Group_18" data-name="Group 18" transform="translate(2.622 18.554)">
            <path id="Path_35" data-name="Path 35" d="M128.906,275.447a1.382,1.382,0,0,1-1.6.325s.77-2.962,2.121-3.759a6.643,6.643,0,0,1,2.592-.808A26.056,26.056,0,0,1,128.906,275.447Z" transform="translate(-125.496 -267.793)" fill="#3a424a"/>
            <path id="Path_36" data-name="Path 36" d="M117.72,260.971c.432,1.32,1.264,1.295,1.264,1.295a12.641,12.641,0,0,0,.03-4.78,20.462,20.462,0,0,0-1.274-3.106S117.163,259.27,117.72,260.971Z" transform="translate(-117.477 -254.38)" fill="#3a424a"/>
          </g>
          <g id="Group_19" data-name="Group 19" transform="translate(0.779 26.424)">
            <path id="Path_37" data-name="Path 37" d="M124.276,307.2c-.744.956-1.515.7-1.515.7s.278-3.087,1.467-4.188a7.129,7.129,0,0,1,2.4-1.407A28.36,28.36,0,0,1,124.276,307.2Z" transform="translate(-119.944 -300.455)" fill="#3a424a"/>
            <path id="Path_38" data-name="Path 38" d="M108.527,299.646c.634,1.191,1.444.968,1.444.968a12.379,12.379,0,0,0-.744-4.69,18.427,18.427,0,0,0-1.76-2.735S107.71,298.111,108.527,299.646Z" transform="translate(-107.466 -293.189)" fill="#3a424a"/>
          </g>
          <g id="Group_20" data-name="Group 20" transform="translate(0 34.634)">
            <path id="Path_39" data-name="Path 39" d="M125.811,340.111c-.583,1.118-1.378,1.051-1.378,1.051s-.2-3.1.791-4.464a7.99,7.99,0,0,1,2.127-1.953A30.613,30.613,0,0,1,125.811,340.111Z" transform="translate(-120.516 -334.527)" fill="#3a424a"/>
            <path id="Path_40" data-name="Path 40" d="M105.282,339.76c.8,1.018,1.564.605,1.564.605s-.382-3.023-1.454-4.428a16.238,16.238,0,0,0-2.154-2.263S104.246,338.447,105.282,339.76Z" transform="translate(-103.238 -333.674)" fill="#3a424a"/>
          </g>
          <g id="Group_21" data-name="Group 21" transform="translate(0.968 41.071)">
            <path id="Path_41" data-name="Path 41" d="M134.83,371.057c-.4,1.238-1.19,1.363-1.19,1.363s-.671-3,.094-4.577a9.091,9.091,0,0,1,1.787-2.428A32.262,32.262,0,0,1,134.83,371.057Z" transform="translate(-128.788 -365.414)" fill="#3a424a"/>
            <path id="Path_42" data-name="Path 42" d="M111.428,377.919c.944.808,1.626.221,1.626.221s-.837-2.88-2.1-4a14.273,14.273,0,0,0-2.457-1.708S110.211,376.877,111.428,377.919Z" transform="translate(-108.495 -371.005)" fill="#3a424a"/>
          </g>
          <g id="Group_22" data-name="Group 22" transform="translate(3.326 46.852)">
            <path id="Path_43" data-name="Path 43" d="M149.478,399.628a1.966,1.966,0,0,1-.954,1.622s-1.129-2.782-.623-4.516a10.186,10.186,0,0,1,1.378-2.814A32.974,32.974,0,0,1,149.478,399.628Z" transform="translate(-142.896 -393.92)" fill="#3a424a"/>
            <path id="Path_44" data-name="Path 44" d="M125.028,413.448a1.241,1.241,0,0,0,1.631-.173s-1.273-2.626-2.687-3.428a12.861,12.861,0,0,0-2.673-1.091S123.669,412.717,125.028,413.448Z" transform="translate(-121.299 -405.747)" fill="#3a424a"/>
          </g>
          <g id="Group_23" data-name="Group 23" transform="translate(18.751 59.807)">
            <path id="Path_45" data-name="Path 45" d="M227.828,462.27a2.024,2.024,0,0,1,.066,1.889s-2.426-1.547-2.929-3.25a10.151,10.151,0,0,1-.349-3.1A29.127,29.127,0,0,1,227.828,462.27Z" transform="translate(-221.007 -457.808)" fill="#3a424a"/>
            <path id="Path_46" data-name="Path 46" d="M210.808,486.73a1.417,1.417,0,0,0,1.14-1.3s-2.591-1-4.167-.568A13.673,13.673,0,0,0,205.061,486S209.32,487.171,210.808,486.73Z" transform="translate(-205.061 -479.293)" fill="#3a424a"/>
          </g>
          <g id="Group_24" data-name="Group 24" transform="translate(25.073 62.683)">
            <path id="Path_47" data-name="Path 47" d="M255.937,475.789a2.142,2.142,0,0,1,.4,1.882s-2.6-1.034-3.386-2.639a10.637,10.637,0,0,1-.884-3.045A28.223,28.223,0,0,1,255.937,475.789Z" transform="translate(-249.733 -471.987)" fill="#3a424a"/>
            <path id="Path_48" data-name="Path 48" d="M245.048,499.141a1.463,1.463,0,0,0,1.018-1.414s-2.6-.812-4.106-.247a13.2,13.2,0,0,0-2.567,1.363S243.628,499.711,245.048,499.141Z" transform="translate(-239.393 -492.151)" fill="#3a424a"/>
          </g>
          <g id="Group_25" data-name="Group 25" transform="translate(7.858 52.223)">
            <path id="Path_49" data-name="Path 49" d="M174.394,425.952a2.14,2.14,0,0,1-.67,1.817s-1.576-2.451-1.358-4.272a11,11,0,0,1,.9-3.09A32.537,32.537,0,0,1,174.394,425.952Z" transform="translate(-167.477 -420.408)" fill="#3a424a"/>
            <path id="Path_50" data-name="Path 50" d="M150.34,446.213a1.326,1.326,0,0,0,1.582-.563s-1.693-2.263-3.213-2.709a12.238,12.238,0,0,0-2.8-.428S148.878,445.826,150.34,446.213Z" transform="translate(-145.907 -438.03)" fill="#3a424a"/>
          </g>
          <g id="Group_26" data-name="Group 26" transform="translate(12.681 56.487)">
            <path id="Path_51" data-name="Path 51" d="M197.344,446.366a2.25,2.25,0,0,1-.216,1.959s-2.135-1.815-2.352-3.631a11.306,11.306,0,0,1,.157-3.259A30.211,30.211,0,0,1,197.344,446.366Z" transform="translate(-190.552 -441.435)" fill="#3a424a"/>
            <path id="Path_52" data-name="Path 52" d="M177.3,470.261a1.51,1.51,0,0,0,1.416-1.067s-2.205-1.6-3.791-1.52a12.706,12.706,0,0,0-2.826.517S175.772,470.38,177.3,470.261Z" transform="translate(-172.099 -462.352)" fill="#3a424a"/>
          </g>
          <g id="Group_27" data-name="Group 27" transform="translate(19.242 0.387)">
            <path id="Path_53" data-name="Path 53" d="M210.453,167.893a5.889,5.889,0,0,1-2.724.464,5.528,5.528,0,0,1,3.382-2.693,31.39,31.39,0,0,1,5.693-.87S212.552,167.084,210.453,167.893Z" transform="translate(-207.729 -164.794)" fill="#3a424a"/>
          </g>
        </g>
      </g>
      <path id="Path_54" data-name="Path 54" d="M196.255,237.47v13.871c0,13.5,8.109,26.058,21.5,33.314h0c13.395-7.256,21.5-19.818,21.5-33.314V237.47Z" transform="translate(-272.658 -538.315)" fill="#062a4e"/>
      <path id="Path_55" data-name="Path 55" d="M196.255,237.47v13.871c0,13.5,8.109,26.058,21.5,33.314h0c13.395-7.256,21.5-19.818,21.5-33.314V237.47Z" transform="translate(-272.658 -538.315)" fill="#3a424a" stroke="#2abc4f" stroke-miterlimit="10" stroke-width="4"/>
      <path id="Path_56" data-name="Path 56" d="M196.96,314.063c.042-.153.157-.321.312-.3a.288.288,0,0,1,.2.175c.04.085.057.179.091.266a.738.738,0,0,0,.361.394l.035.017c1.081.191,4.365.675,9.908-.855a30.45,30.45,0,0,1,9.743-1.211l.074,1.158-.183,1.016c-.309-.544-6.657-.382-9.807.361a25.858,25.858,0,0,1-9.807.421,2.253,2.253,0,0,1-.526-.212.934.934,0,0,1-.147-.133A1.2,1.2,0,0,1,196.96,314.063Z" transform="translate(-273.19 -598.537)" fill="#2abc4f"/>
      <path id="Path_57" data-name="Path 57" d="M296.726,312.517l-.137,2a7.646,7.646,0,0,0-1.284-.213l1.051-1.788Z" transform="translate(-352.141 -598.537)" fill="#040505" opacity="0.12"/>
      <g id="Group_33" data-name="Group 33" transform="translate(-68.041 -283.628)">
        <g id="Group_30" data-name="Group 30" transform="translate(4.95 1.039)">
          <rect id="Rectangle_1" data-name="Rectangle 1" width="0.258" height="15.16" transform="translate(0 0.075) rotate(-16.843)" fill="#25a746"/>
        </g>
        <g id="Group_31" data-name="Group 31" transform="translate(0 1.035)">
          <rect id="Rectangle_2" data-name="Rectangle 2" width="15.331" height="0.258" transform="matrix(0.323, -0.946, 0.946, 0.323, 0, 14.51)" fill="#25a746"/>
        </g>
        <g id="Group_32" data-name="Group 32" transform="translate(4.471 0)">
          <path id="Path_58" data-name="Path 58" d="M261.217,325.228a.6.6,0,0,1,.6-.6.6.6,0,0,1,0,1.206A.6.6,0,0,1,261.217,325.228Zm.258,0a.344.344,0,1,0,.345-.345A.345.345,0,0,0,261.475,325.228Z" transform="translate(-261.217 -324.625)" fill="#25a746"/>
        </g>
      </g>
      <g id="Group_37" data-name="Group 37" transform="translate(-51.676 -283.628)">
        <g id="Group_34" data-name="Group 34" transform="translate(4.95 1.039)">
          <rect id="Rectangle_3" data-name="Rectangle 3" width="0.258" height="15.16" transform="translate(0 0.075) rotate(-16.843)" fill="#25a746"/>
        </g>
        <g id="Group_35" data-name="Group 35" transform="translate(0 1.035)">
          <rect id="Rectangle_4" data-name="Rectangle 4" width="15.331" height="0.258" transform="matrix(0.323, -0.946, 0.946, 0.323, 0, 14.51)" fill="#25a746"/>
        </g>
        <g id="Group_36" data-name="Group 36" transform="translate(4.471 0)">
          <path id="Path_59" data-name="Path 59" d="M344.063,325.228a.6.6,0,0,1,.6-.6.6.6,0,1,1,0,1.206A.6.6,0,0,1,344.063,325.228Zm.258,0a.344.344,0,1,0,.344-.345A.345.345,0,0,0,344.321,325.228Z" transform="translate(-344.063 -324.625)" fill="#25a746"/>
        </g>
      </g>
      <g id="Group_40" data-name="Group 40" transform="translate(-53.159 -299.967)">
        <g id="Group_39" data-name="Group 39" transform="translate(0)" clip-path="url(#clip-path)">
          <g id="Group_38" data-name="Group 38" transform="translate(-2.051 -1.717)">
            <rect id="Rectangle_5" data-name="Rectangle 5" width="1.112" height="15.382" transform="translate(11.471 0.214) rotate(45)" fill="#2abc4f"/>
            <rect id="Rectangle_6" data-name="Rectangle 6" width="1.112" height="21.411" transform="translate(15.14 0) rotate(45)" fill="#2abc4f"/>
            <rect id="Rectangle_7" data-name="Rectangle 7" width="1.112" height="23.67" transform="translate(18.631 0.776) rotate(45)" fill="#2abc4f"/>
            <rect id="Rectangle_8" data-name="Rectangle 8" width="1.112" height="25.681" transform="translate(22.104 1.128) rotate(45)" fill="#2abc4f"/>
            <rect id="Rectangle_9" data-name="Rectangle 9" width="1.112" height="20.943" transform="translate(22.674 4.488) rotate(45)" fill="#2abc4f"/>
          </g>
        </g>
      </g>
      <g id="Group_41" data-name="Group 41" transform="translate(-75.503 -297.003)">
        <path id="Path_60" data-name="Path 60" d="M245.818,257.912c0,.222.01.445,0,.666-.011.185-.073.349-.32.344s-.3-.165-.3-.338c-.012-.436-.011-.873,0-1.309,0-.185.073-.356.309-.358s.3.166.315.352C245.827,257.484,245.818,257.7,245.818,257.912Z" transform="translate(-236.418 -256.918)" fill="#25a746"/>
        <path id="Path_61" data-name="Path 61" d="M213.895,269.581c.011-.287.166-.384.378-.305a.571.571,0,0,1,.185.117c.321.3.639.606.957.909.146.14.206.3.058.462-.127.143-.313.122-.5-.054-.316-.295-.631-.591-.936-.9A.9.9,0,0,1,213.895,269.581Z" transform="translate(-211.31 -266.814)" fill="#25a746"/>
        <path id="Path_62" data-name="Path 62" d="M272.991,269.732a1.97,1.97,0,0,1-.193.275q-.461.453-.935.893c-.188.175-.373.2-.5.054-.147-.165-.089-.322.057-.461.324-.309.639-.626.978-.919a.516.516,0,0,1,.372-.083C272.849,269.5,272.908,269.635,272.991,269.732Z" transform="translate(-257.357 -267.002)" fill="#25a746"/>
        <path id="Path_63" data-name="Path 63" d="M201.871,299.258c.242,0,.483,0,.725,0,.159,0,.291.053.307.214a.264.264,0,0,1-.252.323c-.314.021-.631.021-.946.025a2.6,2.6,0,0,1-.6-.015c-.119-.027-.292-.158-.3-.249a.292.292,0,0,1,.336-.3C201.388,299.261,201.629,299.258,201.871,299.258Z" transform="translate(-200.81 -290.893)" fill="#25a746"/>
        <path id="Path_64" data-name="Path 64" d="M283.085,299.262h.7c.159,0,.284.056.3.218a.264.264,0,0,1-.233.314,1.747,1.747,0,0,1-.32.03q-.562.005-1.124,0c-.277,0-.432-.1-.427-.266.006-.188.159-.294.428-.3Z" transform="translate(-265.948 -290.897)" fill="#25a746"/>
        <path id="Path_65" data-name="Path 65" d="M230.472,264.058c-.092.094-.161.226-.251.241a.4.4,0,0,1-.337-.11,5.261,5.261,0,0,1-.393-.891.319.319,0,0,1,.141-.287c.094-.043.315-.026.35.034C230.162,263.36,230.3,263.7,230.472,264.058Z" transform="translate(-223.821 -261.788)" fill="#25a746"/>
        <path id="Path_66" data-name="Path 66" d="M259.717,264.185c-.286,0-.429-.18-.353-.38.106-.281.231-.557.365-.827a.279.279,0,0,1,.4-.12.255.255,0,0,1,.143.359c-.113.262-.212.531-.343.785C259.882,264.092,259.761,264.148,259.717,264.185Z" transform="translate(-247.781 -261.653)" fill="#25a746"/>
        <path id="Path_67" data-name="Path 67" d="M207.067,284.552a.307.307,0,0,1,.416-.334,7.556,7.556,0,0,1,.846.336.247.247,0,0,1,.151.353.282.282,0,0,1-.381.165c-.284-.106-.571-.21-.846-.335C207.162,284.7,207.1,284.591,207.067,284.552Z" transform="translate(-205.83 -278.809)" fill="#25a746"/>
        <path id="Path_68" data-name="Path 68" d="M280.672,284.555a.77.77,0,0,1-.208.2c-.259.121-.532.215-.8.319a.288.288,0,0,1-.4-.162c-.083-.177.018-.294.173-.363.262-.117.527-.23.8-.323A.314.314,0,0,1,280.672,284.555Z" transform="translate(-263.738 -278.809)" fill="#25a746"/>
      </g>
      <path id="Path_69" data-name="Path 69" d="M217.062,281.326a5.79,5.79,0,1,1,11.444,1.248c.21-.028.414-.052.614-.075a6.377,6.377,0,1,0-11.73,2.114q.323-.014.671-.039A5.757,5.757,0,0,1,217.062,281.326Z" transform="translate(-288.883 -568.389)" fill="#2abc4f"/>
      <path id="Path_70" data-name="Path 70" d="M253.872,383.633c-.1.046-.216.054-.325.09a.829.829,0,0,1,.129.614.739.739,0,0,1-.255.568l.1.033a.081.081,0,0,1,.032.144.215.215,0,0,1-.083.048.309.309,0,0,0-.216.252,1.21,1.21,0,0,0-.016.41c0,.034.029.03.047.036a1.755,1.755,0,0,1,.327.123.215.215,0,0,1,.032.017c.017.014.039.026.036.052s-.03.03-.05.038c-.216.077-.441.115-.662.171-.258.066-.52.116-.775.189-.479.137-.968.234-1.449.364l-.452.12a.11.11,0,0,1-.07,0c-.44-.157-.888-.292-1.329-.448q-.417-.147-.838-.278a.455.455,0,0,1-.3-.27,1.078,1.078,0,0,1,0-.925.627.627,0,0,1,.07-.094l-.106-.027c-.025-.007-.057-.009-.061-.04s.025-.044.047-.057a.891.891,0,0,1,.216-.092c.053-.016.1-.041.153-.061.012,0,.023-.008.024-.023a.86.86,0,0,0-.073-.542.21.21,0,0,0-.12-.1.3.3,0,0,1-.123-.079.07.07,0,0,1,.031-.128l.234-.072a1.1,1.1,0,0,1-.169-.941.432.432,0,0,1,.328-.351c.147-.033.3-.044.45-.065l.93-.13c.18-.025.361-.043.539-.077.221-.043.444-.068.667-.1l.816-.116a.123.123,0,0,1,.053.007c.2.06.4.112.6.181.382.135.776.233,1.16.361l.311.1a.068.068,0,0,1,.032.111.176.176,0,0,1-.094.063.312.312,0,0,0-.216.245,1.138,1.138,0,0,0-.022.409c0,.029.02.037.042.043.061.02.122.041.184.058a.641.641,0,0,1,.22.125Zm-3.422.524c.008-.25.014-.495.023-.739,0-.035-.022-.037-.045-.045-.213-.076-.429-.139-.641-.218-.358-.135-.73-.227-1.087-.369-.125-.05-.258-.079-.384-.127a.176.176,0,0,0-.252.142,1.152,1.152,0,0,0-.013.385.372.372,0,0,0,.3.373c.414.12.832.224,1.243.357C249.874,384.005,250.158,384.075,250.449,384.157Zm.626,1.207c.049.006.079-.03.119-.041.4-.117.81-.217,1.209-.347.283-.092.573-.161.861-.241a.182.182,0,0,0,.121-.084.849.849,0,0,0,.059-.684c-.039-.121-.108-.144-.232-.106-.048.014-.09.039-.136.055-.365.128-.737.235-1.1.369-.287.106-.581.192-.872.287-.026.008-.052.011-.051.053C251.062,384.872,251.068,385.118,251.076,385.364Zm-.815,1.207c.008-.25.015-.492.024-.735,0-.023,0-.036-.028-.044-.1-.031-.2-.071-.3-.106-.35-.127-.71-.226-1.059-.357-.265-.1-.538-.178-.808-.265a.144.144,0,0,0-.171.055.353.353,0,0,0-.061.169,1.1,1.1,0,0,0,.028.432.258.258,0,0,0,.165.209c.189.057.38.108.569.168.4.129.821.22,1.224.356C249.979,386.5,250.118,386.531,250.26,386.571Zm-2.1-2.556a1.159,1.159,0,0,1,.059.6c0,.042.009.053.046.063.427.112.859.206,1.283.328.451.13.914.215,1.363.354.039.012.043,0,.042-.034-.008-.222-.015-.445-.018-.667,0-.05-.016-.068-.064-.078-.523-.11-1.049-.2-1.569-.329-.264-.064-.532-.113-.8-.168Zm5.208-1.188a.058.058,0,0,0-.052,0c-.565.126-1.136.224-1.7.359-.321.077-.647.137-.971.2-.041.008-.051.024-.051.062,0,.22-.01.441-.018.661,0,.044.006.05.048.038.337-.091.677-.166,1.013-.262.487-.138.985-.233,1.469-.381.054-.016.109-.028.164-.039.034-.007.045-.018.039-.056a1.588,1.588,0,0,1-.013-.211A.824.824,0,0,1,253.365,382.827Zm-2.977,3.746c.189-.057.378-.1.564-.152.471-.134.952-.228,1.422-.368.23-.068.464-.118.7-.173.039-.009.053-.023.048-.064a1.14,1.14,0,0,1,.06-.6.194.194,0,0,0-.028,0c-.2.046-.4.074-.592.13-.176.05-.359.074-.538.114-.249.055-.5.089-.748.167-.091.03-.18.085-.284.045-.013,0-.032,0-.047.007-.04.011-.078.027-.118.036q-.18.039-.361.074c-.038.007-.056.019-.056.064,0,.178-.012.356-.018.533C250.386,386.452,250.388,386.51,250.388,386.573Z" transform="translate(-313.898 -654.203)" fill="#25a746"/>
      <path id="Path_71" data-name="Path 71" d="M234.748,402.22c0,1.974,2.486,3.574,5.552,3.574s5.552-1.6,5.552-3.574Z" transform="translate(-303.547 -670.52)" fill="#2abc4f"/>
      <path id="Path_72" data-name="Path 72" d="M234.752,402.415a1.053,1.053,0,0,1-.006-.195h11.1a2.632,2.632,0,0,1-.958,2.007Z" transform="translate(-303.544 -670.52)" fill="#040505" opacity="0.11"/>
      <g id="Group_42" data-name="Group 42" transform="translate(-50.189 -274.044)">
        <path id="Path_73" data-name="Path 73" d="M334.445,380.69q0-1.082,0-2.164c0-.437-.079-.517-.512-.517h-1.328c-.072,0-.179-.025-.185.076-.007.119.1.1.186.1.466,0,.931.008,1.4,0,.195,0,.254.073.253.252,0,.8,0,1.593,0,2.389,0,.1,0,.167-.14.165s-.129-.086-.129-.175q0-.98,0-1.961c0-.334-.062-.395-.4-.395h-1.61c.035-.089.041-.178.086-.206.137-.084.133-.208.134-.336,0-.173,0-.346,0-.518a1.02,1.02,0,0,0-.6-.668l-.023,0c-.29,0-.58,0-.869.015a.5.5,0,0,0-.46.352,3.175,3.175,0,0,0-.041,1.027.134.134,0,0,0,.063.09c.08.05.136.125.1.2-.038.1-.146.038-.22.041-.278.009-.35.073-.355.347a2.672,2.672,0,0,0,0,.36c.024.2-.062.3-.27.348v-.959c0-.321,0-.323.315-.365.066-.009.126-.019.122-.1s-.075-.076-.135-.081c-.356-.028-.492.092-.492.445,0,.782,0,1.563,0,2.344,0,.074.055.178-.108.192-.251.021-.324.147-.252.383a.6.6,0,0,0,.624.426c1.48,0,2.961-.009,4.441.007a.777.777,0,0,0,.779-.413v-.316c-.051-.028-.105-.085-.151-.079C334.395,381.036,334.445,380.848,334.445,380.69Zm-.752-2.05c.118,0,.1.088.1.161,0,.338,0,.675,0,1.013s0,.69,0,1.035c0,.108-.03.149-.141.138a1.5,1.5,0,0,0-.251,0c-.216.014-.439.044-.37-.293a.082.082,0,0,0-.091-.1c-.061,0-.087.052-.087.111,0,.03,0,.06,0,.09.013.125,0,.216-.172.2-.128-.015-.267.021-.234-.187.011-.067.021-.173-.093-.166s-.1.105-.088.178c.027.166-.063.174-.195.173-.472,0-.472,0-.564-.453,0-.007,0-.014-.007-.021-.087-.324-.183-.651.249-.823a.035.035,0,0,0,.016-.015c.2-.34.472-.226.739-.121a.536.536,0,0,1,.348.594.7.7,0,0,0,0,.135.083.083,0,0,0,.095.077c.055,0,.071-.039.083-.088a.771.771,0,0,0-.524-.909,5.93,5.93,0,0,1-.647-.209c-.114-.053-.2-.095-.172-.238a.3.3,0,0,1,.257-.27C332.534,378.63,333.114,378.639,333.693,378.64Zm-2.235.581c-.1.059-.169.222-.294.156-.146-.078-.352-.158-.257-.426a.949.949,0,0,0,.433.037c.055-.011.128-.073.159.005A.179.179,0,0,1,331.458,379.221Zm.4.144c-.085.074-.162.136-.232.2s-.118.119-.2.027.022-.13.069-.161C331.588,379.363,331.671,379.2,331.855,379.364Zm-.552.384c-.012.059-.035.1-.1.11s-.1-.037-.1-.091.046-.079.082-.09C331.24,379.658,331.276,379.7,331.3,379.748Zm-.273-.227c.007.051-.043.074-.075.1a.084.084,0,0,1-.135-.006.257.257,0,0,0-.032-.031l-.27-.226C330.675,379.293,331.016,379.424,331.03,379.521Zm.134.517.062,0c.055.294.11.587.164.881.012.066-.036.07-.084.07h-.315Zm1.456,1.144a2.181,2.181,0,0,1-1.464,0Zm-2.238-3.833a.408.408,0,0,1,.418-.434c.121-.007.243,0,.365,0v0h.319c.114,0,.215.011.229.155a.127.127,0,0,0,.1.116c.317.053.169.3.2.464,0,.02-.028.065-.045.067-.039,0-.059-.028-.072-.07-.11-.341-.111-.335-.472-.274a1.227,1.227,0,0,1-.5-.013c-.272-.066-.342-.022-.407.254-.013.056-.026.109-.092.1s-.037-.071-.039-.112C330.38,377.514,330.38,377.431,330.383,377.349Zm.09.55a.225.225,0,0,0,.212-.2c.006-.185.072-.2.239-.156a1.14,1.14,0,0,0,.607-.014c.109-.033.181-.009.176.121a.233.233,0,0,0,.209.252c.107.024.131.126.07.159-.151.08-.129.224-.178.341a.682.682,0,0,1-.636.422.674.674,0,0,1-.573-.386c-.061-.127-.033-.294-.2-.378C330.355,378.034,330.354,377.917,330.473,377.9Zm-.482.925c.006-.186.006-.186.3-.185a.335.335,0,0,1,.351.15.205.205,0,0,1-.076.345c-.014.006-.029.009-.043.016C329.984,379.4,329.973,379.389,329.991,378.824Zm-.459,1.927a1.8,1.8,0,0,0,0-.292v-.135c0-.623.115-.755.746-.888a.146.146,0,0,1,.153.045c.156.136.26.33.486.391.079.021.067.124.054.2-.046.257-.094.515-.138.772-.018.1-.061.16-.18.143a1.212,1.212,0,0,0-.228,0c-.185.009-.378.035-.318-.256a.078.078,0,0,0-.094-.1c-.073.013-.083.074-.085.139,0,.1.052.219-.149.219S329.5,380.957,329.532,380.751Zm5.089.591a.432.432,0,0,1-.447.28c-.763,0-1.526,0-2.29,0s-1.511,0-2.267,0a.433.433,0,0,1-.465-.317c-.018-.087-.007-.14.107-.14.527,0,1.053,0,1.58,0,.084,0,.114.04.151.105a.417.417,0,0,0,.4.215q.5-.006,1.007,0a.412.412,0,0,0,.4-.213.17.17,0,0,1,.173-.108c.511,0,1.023.006,1.534,0C334.661,381.16,334.666,381.232,334.621,381.342Z" transform="translate(-328.956 -376.021)" fill="#25a746"/>
        <path id="Path_74" data-name="Path 74" d="M349.879,373.143c-.564.016-1.129.006-1.694.006-.071.115-.193.2-.184.36.011.194,0,.39,0,.585a.281.281,0,0,0,.1.242.282.282,0,0,1,.133.3.162.162,0,0,0,.085.19.146.146,0,0,0,.194-.071.782.782,0,0,1,.817-.3c.121.01.244,0,.366,0a.345.345,0,0,0,.373-.263l.04,0v-.811C350.149,373.184,350.073,373.138,349.879,373.143Zm.017.9c0,.162-.072.233-.234.228s-.305.008-.457,0a.7.7,0,0,0-.764.3c-.019-.151-.013-.285-.18-.345-.068-.024-.076-.1-.076-.175,0-.165,0-.33,0-.495s.075-.239.249-.237q.616.01,1.233,0c.171,0,.233.07.229.228S349.891,373.883,349.9,374.048Z" transform="translate(-344.238 -373.143)" fill="#25a746"/>
      </g>
      <path id="Path_75" data-name="Path 75" d="M196.412,235.709v14.1c0,13.718,8.1,26.487,21.472,33.862h0V235.709Z" transform="translate(-272.608 -536.884)" fill="#fff" opacity="0.21"/>
      <g id="Group_44" data-name="Group 44" transform="translate(-52.434 -268.3)">
        <path id="Path_76" data-name="Path 76" d="M317.594,402.22c0,1.974,2.486,3.574,5.552,3.574s5.552-1.6,5.552-3.574Z" transform="translate(-317.593 -402.22)" fill="#2abc4f"/>
        <path id="Path_77" data-name="Path 77" d="M317.6,402.415a1.066,1.066,0,0,1-.006-.195h11.1a2.632,2.632,0,0,1-.958,2.007Z" transform="translate(-317.59 -402.22)" fill="#040505" opacity="0.11"/>
      </g>
      <g id="Group_45" data-name="Group 45" transform="translate(-54.886 -286.051)">
        <path id="Path_78" data-name="Path 78" d="M326.584,313.971c-.044-.153-.162-.321-.322-.3a.294.294,0,0,0-.209.175c-.041.085-.059.179-.094.266a.748.748,0,0,1-.373.394l-.036.017c-1.118.191-4.513.675-10.244-.855a34.608,34.608,0,0,0-10.127-1.287v1.309l.167.94c.319-.544,6.882-.382,10.138.361a27.616,27.616,0,0,0,10.138.421,2.378,2.378,0,0,0,.544-.212.957.957,0,0,0,.152-.134A1.167,1.167,0,0,0,326.584,313.971Z" transform="translate(-305.179 -312.363)" fill="#25a746"/>
        <path id="Path_79" data-name="Path 79" d="M307.437,312.517l.137,2a7.649,7.649,0,0,1,1.284-.213l-1.051-1.788Z" transform="translate(-306.991 -312.487)" fill="#040505" opacity="0.12"/>
      </g>
      <g id="Group_46" data-name="Group 46" transform="translate(-56.182 -291.741)">
        <path id="Path_80" data-name="Path 80" d="M299.914,311.823h-.026c-.713,0-1.285-.908-1.27-2.012,0,0,.473-26.258.651-26.257h1.17c.177,0,.744,26.242.744,26.242C301.2,310.906,300.63,311.823,299.914,311.823Z" transform="translate(-298.617 -283.554)" fill="#25a746"/>
        <path id="Path_81" data-name="Path 81" d="M305.65,283.554h-.538v28.269h.013c.716,0,1.291-.918,1.269-2.028C306.394,309.8,305.827,283.554,305.65,283.554Z" transform="translate(-303.829 -283.554)" fill="#2abc4f"/>
      </g>
    </g>
    <g id="Group_49" data-name="Group 49" transform="translate(-18.595 -308.86)">
      <path id="Path_82" data-name="Path 82" d="M-116.447-35.909v.677h-10.631v-.677h.878a2.649,2.649,0,0,0,2.232-.9,5.573,5.573,0,0,0,.439-2.818V-55.652a8.216,8.216,0,0,0-.238-2.489,1.649,1.649,0,0,0-.75-.787,3.468,3.468,0,0,0-1.683-.439h-.878v-.677h10.631v.677h-.9a2.627,2.627,0,0,0-2.214.9,5.378,5.378,0,0,0-.457,2.818v16.029a8.216,8.216,0,0,0,.238,2.489,1.638,1.638,0,0,0,.769.787,3.366,3.366,0,0,0,1.665.439Zm.421-24.135h6.734l15.169,18.609V-55.744q0-2.287-.512-2.854a2.712,2.712,0,0,0-2.141-.769h-.86v-.677H-89v.677h-.878a2.521,2.521,0,0,0-2.232.951,5.552,5.552,0,0,0-.4,2.672v20.915h-.659L-109.53-54.811v15.279a5.077,5.077,0,0,0,.494,2.854,2.747,2.747,0,0,0,2.141.769h.878v.677h-8.637v-.677h.86a2.542,2.542,0,0,0,2.251-.951,5.552,5.552,0,0,0,.4-2.672V-56.787a11.307,11.307,0,0,0-1.638-1.665,6.013,6.013,0,0,0-1.638-.75,5.833,5.833,0,0,0-1.61-.165Zm44.739-.567v8.582h-.677a10.69,10.69,0,0,0-1.18-3.934,6.14,6.14,0,0,0-2.424-2.324,6.707,6.707,0,0,0-3.257-.86,4.43,4.43,0,0,0-3.147,1.162,3.535,3.535,0,0,0-1.244,2.644,3.132,3.132,0,0,0,.787,2.068q1.134,1.372,5.4,3.66a37.3,37.3,0,0,1,4.748,2.864A6.984,6.984,0,0,1-70.327-44.4a6.2,6.2,0,0,1,.686,2.836A6.422,6.422,0,0,1-71.827-36.7a7.919,7.919,0,0,1-5.627,2.04,11.91,11.91,0,0,1-2.031-.165,20.735,20.735,0,0,1-2.351-.668,10.543,10.543,0,0,0-2.26-.576.958.958,0,0,0-.723.274,2.186,2.186,0,0,0-.393,1.134h-.677v-8.509h.677a12.026,12.026,0,0,0,1.281,4,6.153,6.153,0,0,0,2.461,2.2,7.631,7.631,0,0,0,3.632.878A5.166,5.166,0,0,0-74.224-37.3,3.74,3.74,0,0,0-72.9-40.154,3.87,3.87,0,0,0-73.4-42a5.507,5.507,0,0,0-1.564-1.738,44.86,44.86,0,0,0-3.9-2.333,37.808,37.808,0,0,1-4.529-2.845,7.674,7.674,0,0,1-2.04-2.342,5.81,5.81,0,0,1-.7-2.818,6.108,6.108,0,0,1,2.049-4.6,7.3,7.3,0,0,1,5.215-1.93,10.462,10.462,0,0,1,4.19.97,4.311,4.311,0,0,0,1.446.457,1.09,1.09,0,0,0,.778-.284,2.264,2.264,0,0,0,.485-1.144Zm20.8,17.072h-9.606l-1.683,3.916a6.2,6.2,0,0,0-.622,2.159,1.254,1.254,0,0,0,.54,1,4.716,4.716,0,0,0,2.333.558v.677h-7.813v-.677a4.21,4.21,0,0,0,2.013-.714,11.209,11.209,0,0,0,2.068-3.568l8.728-20.421h.64l8.637,20.64a9.408,9.408,0,0,0,1.894,3.23,3.861,3.861,0,0,0,2.37.833v.677h-9.789v-.677a3.67,3.67,0,0,0,2-.494,1.274,1.274,0,0,0,.521-1.025,7.587,7.587,0,0,0-.732-2.543Zm-.512-1.354L-55.2-54.92l-4.318,10.027Zm18.1-13.8v9.753h4.52a3.22,3.22,0,0,0,2.278-.686,4.539,4.539,0,0,0,.961-2.717h.677v8.4h-.677a4.9,4.9,0,0,0-.375-2.123A2.373,2.373,0,0,0-26.5-47.08a4.083,4.083,0,0,0-1.876-.339H-32.9v7.795a8.216,8.216,0,0,0,.238,2.489,1.638,1.638,0,0,0,.769.787,3.468,3.468,0,0,0,1.683.439h.9v.677H-39.961v-.677h.878a2.649,2.649,0,0,0,2.232-.9,5.573,5.573,0,0,0,.439-2.818V-55.652a8.216,8.216,0,0,0-.238-2.489,1.649,1.649,0,0,0-.75-.787,3.4,3.4,0,0,0-1.683-.439h-.878v-.677H-21.5l.238,5.453h-.64a7.5,7.5,0,0,0-1.107-2.553,3.635,3.635,0,0,0-1.555-1.18,8.3,8.3,0,0,0-2.864-.366Z" transform="translate(127.218 56.418)" fill="#2abc4f"/>
      <path id="Path_83" data-name="Path 83" d="M-141.648-31.021h-5.4l-.946,2.2a3.482,3.482,0,0,0-.349,1.213.7.7,0,0,0,.3.56,2.649,2.649,0,0,0,1.311.314v.38h-4.389v-.38a2.365,2.365,0,0,0,1.131-.4,6.3,6.3,0,0,0,1.162-2l4.9-11.472h.36l4.852,11.595a5.285,5.285,0,0,0,1.064,1.814,2.169,2.169,0,0,0,1.331.468v.38h-5.5v-.38a2.062,2.062,0,0,0,1.126-.278.716.716,0,0,0,.293-.576,4.262,4.262,0,0,0-.411-1.429Zm-.288-.761-2.364-5.633-2.426,5.633Zm18.533-8.83.319,4.739h-.319a5.964,5.964,0,0,0-1.819-3.063,4.432,4.432,0,0,0-2.837-.935,4.616,4.616,0,0,0-2.508.7,4.657,4.657,0,0,0-1.763,2.246,10,10,0,0,0-.642,3.834,8.142,8.142,0,0,0,.606,3.279,4.544,4.544,0,0,0,1.825,2.128,5.248,5.248,0,0,0,2.781.74,4.823,4.823,0,0,0,2.4-.581,7.9,7.9,0,0,0,2.282-2.308l.319.206a7.318,7.318,0,0,1-2.446,2.724,6.192,6.192,0,0,1-3.32.863,6.285,6.285,0,0,1-5.366-2.57,7.347,7.347,0,0,1-1.419-4.5,8,8,0,0,1,.935-3.834,6.768,6.768,0,0,1,2.575-2.709,6.957,6.957,0,0,1,3.582-.961,6.565,6.565,0,0,1,2.981.74,1.617,1.617,0,0,0,.617.226.679.679,0,0,0,.483-.2,1.6,1.6,0,0,0,.38-.771Zm11,9.59h-5.4l-.946,2.2a3.483,3.483,0,0,0-.349,1.213.7.7,0,0,0,.3.56,2.649,2.649,0,0,0,1.311.314v.38h-4.389v-.38a2.365,2.365,0,0,0,1.131-.4,6.3,6.3,0,0,0,1.162-2l4.9-11.472h.36l4.852,11.595A5.285,5.285,0,0,0-108.4-27.2a2.169,2.169,0,0,0,1.331.468v.38h-5.5v-.38a2.062,2.062,0,0,0,1.126-.278.716.716,0,0,0,.293-.576,4.262,4.262,0,0,0-.411-1.429Zm-.288-.761-2.364-5.633-2.426,5.633Zm6.219,5.427v-.38h.524a1.385,1.385,0,0,0,1.254-.565,3.222,3.222,0,0,0,.226-1.521v-9a2.877,2.877,0,0,0-.288-1.634,1.51,1.51,0,0,0-1.192-.452h-.524v-.38h5.674a12.391,12.391,0,0,1,4.754.709,5.656,5.656,0,0,1,2.621,2.364,7.293,7.293,0,0,1,.992,3.824A6.974,6.974,0,0,1-94.2-28.534q-1.984,2.179-6.044,2.179Zm3.978-1.007a10.5,10.5,0,0,0,2.189.288,5.2,5.2,0,0,0,3.957-1.676,6.372,6.372,0,0,0,1.573-4.543,6.364,6.364,0,0,0-1.573-4.554,5.31,5.31,0,0,0-4.04-1.665,8.728,8.728,0,0,0-2.107.3ZM-87.23-39.532v5.51h3.063a2.5,2.5,0,0,0,1.593-.36,2.315,2.315,0,0,0,.6-1.665h.38V-31.2h-.38a5.305,5.305,0,0,0-.288-1.305,1.287,1.287,0,0,0-.606-.565,3.1,3.1,0,0,0-1.3-.206H-87.23v4.595a4.268,4.268,0,0,0,.082,1.126.647.647,0,0,0,.288.319,1.748,1.748,0,0,0,.781.118h2.364A6.405,6.405,0,0,0-82-27.28a2.56,2.56,0,0,0,1.028-.648,7.91,7.91,0,0,0,1.305-1.922h.411l-1.2,3.495H-91.2v-.38h.493a1.955,1.955,0,0,0,.935-.236.865.865,0,0,0,.447-.493,4.838,4.838,0,0,0,.118-1.347v-9.056a3,3,0,0,0-.267-1.634,1.592,1.592,0,0,0-1.234-.411H-91.2v-.38h10.742l.154,3.053h-.4a4.816,4.816,0,0,0-.478-1.511,1.641,1.641,0,0,0-.776-.627,4.656,4.656,0,0,0-1.449-.154Zm17.074,13.178-5.386-11.729v9.313a2.852,2.852,0,0,0,.278,1.6,1.524,1.524,0,0,0,1.2.432h.493v.38h-4.852v-.38h.493a1.416,1.416,0,0,0,1.254-.535,3.119,3.119,0,0,0,.226-1.5v-9.107a3.185,3.185,0,0,0-.206-1.336,1.141,1.141,0,0,0-.529-.5,2.839,2.839,0,0,0-1.239-.2v-.38h3.947l5.057,10.906,4.975-10.906h3.947v.38h-.483a1.428,1.428,0,0,0-1.264.535,3.119,3.119,0,0,0-.226,1.5v9.107a2.766,2.766,0,0,0,.288,1.6,1.524,1.524,0,0,0,1.2.432h.483v.38h-5.921v-.38h.493a1.4,1.4,0,0,0,1.254-.535,3.119,3.119,0,0,0,.226-1.5v-9.313l-5.376,11.729Zm20.137-13.939h4.862v.38h-.267a2.1,2.1,0,0,0-.781.236,3.051,3.051,0,0,0-.935.678,9.246,9.246,0,0,0-1.038,1.439l-3.361,5.294v3.495a2.766,2.766,0,0,0,.288,1.6,1.586,1.586,0,0,0,1.234.432h.452v.38h-5.921v-.38h.493a1.416,1.416,0,0,0,1.254-.535,3.119,3.119,0,0,0,.226-1.5v-3.3l-3.824-5.839a12.317,12.317,0,0,0-.92-1.285,3.611,3.611,0,0,0-1-.617,1.37,1.37,0,0,0-.6-.1v-.38h5.962v.38H-54.2a1.8,1.8,0,0,0-.889.226.731.731,0,0,0-.406.678,3.252,3.252,0,0,0,.627,1.336l2.909,4.492,2.734-4.3a3.179,3.179,0,0,0,.617-1.439.913.913,0,0,0-.149-.514,1,1,0,0,0-.427-.355,2.07,2.07,0,0,0-.833-.128Z" transform="translate(151.115 67.72)" fill="#2abc4f"/>
    </g>
  </g>
</svg>
