<svg xmlns="http://www.w3.org/2000/svg" xmlns:xlink="http://www.w3.org/1999/xlink" width="169.133" height="205.491" viewBox="0 0 169.133 205.491">
  <defs>
    <filter id="Path_1" x="31.271" y="29.527" width="107.141" height="116.092" filterUnits="userSpaceOnUse">
      <feOffset dx="1" dy="7" input="SourceAlpha"/>
      <feGaussianBlur stdDeviation="2.5" result="blur"/>
      <feFlood flood-color="#030504" flood-opacity="0.31"/>
      <feComposite operator="in" in2="blur"/>
      <feComposite in="SourceGraphic"/>
    </filter>
    <clipPath id="clip-path">
      <rect id="Rectangle_10" data-name="Rectangle 10" width="39.62" height="32.503" fill="#2abc4f"/>
    </clipPath>
  </defs>
  <g id="Group_47" data-name="Group 47" transform="translate(-103.238 -162.885)">
    <g transform="matrix(1, 0, 0, 1, 103.24, 162.88)" filter="url(#Path_1)">
      <path id="Path_1-2" data-name="Path 1" d="M194.327,235.3v29.719c0,28.914,17.373,55.828,46.07,71.373h0c28.7-15.545,46.07-42.459,46.07-71.373V235.3Z" transform="translate(-156.56 -205.27)" fill="#00273b"/>
    </g>
    <g id="Group_29" data-name="Group 29" transform="translate(103.238 162.885)">
      <g id="Group_14" data-name="Group 14" transform="translate(72.286 0.261)">
        <path id="Path_2" data-name="Path 2" d="M330.73,183.09a65.505,65.505,0,0,1,20.238,16.483,71.464,71.464,0,0,1,12.6,22.912,73.6,73.6,0,0,1,3.685,25.91,68.025,68.025,0,0,1-5.788,25.515c-.919,1.993-1.927,3.944-3.036,5.837q-1.692,2.823-3.656,5.468a65.114,65.114,0,0,1-4.237,5.029,63.727,63.727,0,0,1-4.753,4.541,72.205,72.205,0,0,1-22.7,12.988c-4.135,1.448-8.3,2.774-12.414,4.272s-8.184,3.09-12.123,4.974a69.407,69.407,0,0,0-11.274,6.56,36.012,36.012,0,0,0-4.857,4.278,21.14,21.14,0,0,0-3.665,5.211.627.627,0,1,1-1.131-.542l.012-.024a23.265,23.265,0,0,1,4.043-5.358,36.952,36.952,0,0,1,5.112-4.239,70.807,70.807,0,0,1,11.526-6.39c4.006-1.793,8.1-3.378,12.231-4.823s8.32-2.741,12.461-4.142a69.519,69.519,0,0,0,22.641-12.918,63.627,63.627,0,0,0,4.713-4.548,64.762,64.762,0,0,0,4.195-5.028q1.942-2.637,3.613-5.459c1.095-1.889,2.088-3.835,2.992-5.821.877-2,1.667-4.035,2.349-6.108.172-.518.321-1.043.482-1.564l.238-.783.211-.791.422-1.581.369-1.594a72.278,72.278,0,0,0,1.69-12.971,73.307,73.307,0,0,0-3.59-25.82,71.246,71.246,0,0,0-12.495-22.886A65.614,65.614,0,0,0,330.73,183.09Z" transform="translate(-277.565 -174.973)" fill="#3a424a"/>
        <g id="Group_1" data-name="Group 1" transform="translate(49.788)">
          <path id="Path_3" data-name="Path 3" d="M409.184,198a3.554,3.554,0,0,0,3.44-1.691s-5.2-3.923-8.867-3.367a18.176,18.176,0,0,0-6.122,2.284S405.791,197.938,409.184,198Z" transform="translate(-397.635 -180.706)" fill="#3a424a"/>
          <path id="Path_4" data-name="Path 4" d="M424.505,174.576c.835,2.833-.785,3.956-.785,3.956s-4.85-4.216-6.186-8.016a43.077,43.077,0,0,1-1.727-7S423.43,170.925,424.505,174.576Z" transform="translate(-408.272 -163.515)" fill="#3a424a"/>
        </g>
        <g id="Group_2" data-name="Group 2" transform="translate(61.191 10.306)">
          <path id="Path_5" data-name="Path 5" d="M435.279,222.069a3.468,3.468,0,0,0,3.622-.924s-4.022-4.861-7.561-5.067a17.085,17.085,0,0,0-6.206.967S432.093,221.312,435.279,222.069Z" transform="translate(-425.134 -204.576)" fill="#3a424a"/>
          <path id="Path_6" data-name="Path 6" d="M455.472,200.806c.157,2.91-1.616,3.663-1.616,3.663s-3.627-5.073-3.995-9.007a42.122,42.122,0,0,1,.028-7.094S455.27,197.056,455.472,200.806Z" transform="translate(-439.526 -188.369)" fill="#3a424a"/>
        </g>
        <g id="Group_3" data-name="Group 3" transform="translate(69.989 23.158)">
          <path id="Path_7" data-name="Path 7" d="M454.982,250.078a3.381,3.381,0,0,0,3.675-.13s-2.866-5.573-6.2-6.513a16.308,16.308,0,0,0-6.11-.358S452.073,248.668,454.982,250.078Z" transform="translate(-446.352 -233.162)" fill="#3a424a"/>
          <path id="Path_8" data-name="Path 8" d="M477.015,232.6c-.445,2.862-2.3,3.218-2.3,3.218s-2.445-5.7-1.956-9.586a41.338,41.338,0,0,1,1.558-6.864S477.589,228.907,477.015,232.6Z" transform="translate(-461.77 -219.363)" fill="#3a424a"/>
        </g>
        <g id="Group_4" data-name="Group 4" transform="translate(76.253 37.939)">
          <path id="Path_9" data-name="Path 9" d="M468.467,280.509a3.354,3.354,0,0,0,3.6.664s-1.734-6.057-4.775-7.686a16.114,16.114,0,0,0-5.838-1.652S465.9,278.506,468.467,280.509Z" transform="translate(-461.458 -264.858)" fill="#3a424a"/>
          <path id="Path_10" data-name="Path 10" d="M490.7,268.486c-.972,2.7-2.846,2.648-2.846,2.648s-1.3-6.087-.068-9.774a39.847,39.847,0,0,1,2.869-6.351S491.956,265.008,490.7,268.486Z" transform="translate(-476.559 -255.01)" fill="#3a424a"/>
        </g>
        <g id="Group_5" data-name="Group 5" transform="translate(80.053 54.032)">
          <path id="Path_11" data-name="Path 11" d="M475.908,312.942a3.422,3.422,0,0,0,3.412,1.433s-.627-6.313-3.3-8.564a16.576,16.576,0,0,0-5.4-2.877S473.748,310.421,475.908,312.942Z" transform="translate(-470.621 -299.154)" fill="#3a424a"/>
          <path id="Path_12" data-name="Path 12" d="M496.537,307.023c-1.427,2.434-3.251,1.978-3.251,1.978s-.2-6.249,1.675-9.589a37.575,37.575,0,0,1,3.964-5.593S498.375,303.884,496.537,307.023Z" transform="translate(-483.884 -293.819)" fill="#3a424a"/>
        </g>
        <g id="Group_6" data-name="Group 6" transform="translate(81.457 70.819)">
          <path id="Path_13" data-name="Path 13" d="M477.475,346.347c1.312,2.285,3.1,2.149,3.1,2.149s.455-6.338-1.78-9.129a17.6,17.6,0,0,0-4.789-3.994S475.784,343.4,477.475,346.347Z" transform="translate(-474.008 -334.93)" fill="#3a424a"/>
          <path id="Path_14" data-name="Path 14" d="M495.051,346.748c-1.811,2.082-3.522,1.237-3.522,1.237s.862-6.182,3.274-9.054a34.936,34.936,0,0,1,4.851-4.627S497.384,344.064,495.051,346.748Z" transform="translate(-484.264 -334.304)" fill="#3a424a"/>
        </g>
        <g id="Group_7" data-name="Group 7" transform="translate(79.506 83.981)">
          <path id="Path_15" data-name="Path 15" d="M470.856,377.583c.9,2.531,2.68,2.786,2.68,2.786s1.511-6.13-.211-9.359a18.924,18.924,0,0,0-4.023-4.966S469.694,374.321,470.856,377.583Z" transform="translate(-469.302 -366.044)" fill="#3a424a"/>
          <path id="Path_16" data-name="Path 16" d="M484.771,384.286c-2.126,1.652-3.661.451-3.661.451s1.884-5.889,4.731-8.187a32.491,32.491,0,0,1,5.534-3.494S487.51,382.156,484.771,384.286Z" transform="translate(-476.214 -370.148)" fill="#3a424a"/>
        </g>
        <g id="Group_8" data-name="Group 8" transform="translate(74.361 95.801)">
          <path id="Path_17" data-name="Path 17" d="M457.071,406.22c.447,2.68,2.147,3.317,2.147,3.317s2.543-5.688,1.4-9.234a20.214,20.214,0,0,0-3.1-5.753S456.495,402.766,457.071,406.22Z" transform="translate(-456.895 -394.55)" fill="#3a424a"/>
          <path id="Path_18" data-name="Path 18" d="M467.629,418.979a2.977,2.977,0,0,1-3.673-.354s2.867-5.37,6.05-7.009a30.765,30.765,0,0,1,6.018-2.23S470.687,417.485,467.629,418.979Z" transform="translate(-461.028 -403.234)" fill="#3a424a"/>
        </g>
        <g id="Group_9" data-name="Group 9" transform="translate(38.693 122.293)">
          <path id="Path_19" data-name="Path 19" d="M371.45,467.563c-1.2,2.405-.147,3.863-.147,3.863s5.463-3.164,6.594-6.645a18.913,18.913,0,0,0,.785-6.342S372.993,464.462,371.45,467.563Z" transform="translate(-370.877 -458.438)" fill="#3a424a"/>
          <path id="Path_20" data-name="Path 20" d="M374.467,489.42c-2.6-.7-2.567-2.649-2.567-2.649s5.834-2.047,9.385-1.161a32.472,32.472,0,0,1,6.123,2.308S377.818,490.322,374.467,489.42Z" transform="translate(-371.476 -474.213)" fill="#3a424a"/>
        </g>
        <g id="Group_10" data-name="Group 10" transform="translate(25.359 128.172)">
          <path id="Path_21" data-name="Path 21" d="M339.78,480.391c-1.62,2.181-.9,3.848-.9,3.848s5.861-2.115,7.624-5.4a20.213,20.213,0,0,0,1.991-6.226S341.868,477.58,339.78,480.391Z" transform="translate(-338.72 -472.617)" fill="#3a424a"/>
          <path id="Path_22" data-name="Path 22" d="M341.016,501.714a2.978,2.978,0,0,1-2.293-2.891s5.857-1.661,9.246-.505a30.749,30.749,0,0,1,5.781,2.787S344.214,502.88,341.016,501.714Z" transform="translate(-338.72 -487.422)" fill="#3a424a"/>
        </g>
        <g id="Group_11" data-name="Group 11" transform="translate(63.576 106.785)">
          <path id="Path_23" data-name="Path 23" d="M430.887,432.375a4.219,4.219,0,0,0,1.509,3.716s3.548-5.011,3.058-8.736a21.04,21.04,0,0,0-2.035-6.318S430.953,428.868,430.887,432.375Z" transform="translate(-430.886 -421.038)" fill="#3a424a"/>
          <path id="Path_24" data-name="Path 24" d="M439.351,450.71a3.093,3.093,0,0,1-3.562-1.152s3.811-4.628,7.234-5.54a30.152,30.152,0,0,1,6.31-.875S442.643,449.917,439.351,450.71Z" transform="translate(-433.756 -433.977)" fill="#3a424a"/>
        </g>
        <g id="Group_12" data-name="Group 12" transform="translate(52.747 115.504)">
          <path id="Path_25" data-name="Path 25" d="M405.023,452.148a4.262,4.262,0,0,0,.487,4s4.808-3.71,5.3-7.424a21.057,21.057,0,0,0-.354-6.664S406.022,448.821,405.023,452.148Z" transform="translate(-404.771 -442.065)" fill="#3a424a"/>
          <path id="Path_26" data-name="Path 26" d="M409.513,473.6a3.308,3.308,0,0,1-3.188-2.181s4.966-3.265,8.538-3.107a31.175,31.175,0,0,1,6.363,1.057S412.954,473.838,409.513,473.6Z" transform="translate(-405.681 -457.422)" fill="#3a424a"/>
        </g>
        <g id="Group_13" data-name="Group 13" transform="translate(33.084 0.792)">
          <path id="Path_27" data-name="Path 27" d="M371.653,171.76a14.5,14.5,0,0,0,6.133.95,12.131,12.131,0,0,0-7.615-5.507,77.346,77.346,0,0,0-12.82-1.778S366.924,170.106,371.653,171.76Z" transform="translate(-357.351 -165.424)" fill="#3a424a"/>
        </g>
      </g>
      <g id="Group_28" data-name="Group 28">
        <path id="Path_28" data-name="Path 28" d="M156.946,182.461a65.494,65.494,0,0,0-20.238,16.483,71.451,71.451,0,0,0-12.6,22.912,73.592,73.592,0,0,0-3.685,25.91,68.029,68.029,0,0,0,5.788,25.515c.919,1.993,1.927,3.944,3.036,5.837q1.691,2.823,3.656,5.467a65.113,65.113,0,0,0,4.237,5.029,63.739,63.739,0,0,0,4.753,4.541,72.213,72.213,0,0,0,22.7,12.989c4.135,1.448,8.3,2.774,12.414,4.272s8.184,3.09,12.123,4.974a69.326,69.326,0,0,1,11.274,6.56,35.986,35.986,0,0,1,4.857,4.278,21.137,21.137,0,0,1,3.665,5.211.627.627,0,1,0,1.131-.542l-.012-.024a23.266,23.266,0,0,0-4.043-5.358,36.889,36.889,0,0,0-5.112-4.239,70.79,70.79,0,0,0-11.526-6.39c-4.006-1.793-8.1-3.378-12.231-4.823s-8.32-2.741-12.461-4.142A69.51,69.51,0,0,1,142.024,294a63.547,63.547,0,0,1-4.713-4.548,64.746,64.746,0,0,1-4.195-5.028q-1.942-2.638-3.613-5.459c-1.1-1.889-2.088-3.835-2.993-5.821-.877-2-1.667-4.035-2.349-6.108-.171-.517-.32-1.043-.481-1.564l-.238-.783-.211-.79-.422-1.582-.37-1.594a72.316,72.316,0,0,1-1.689-12.971,73.307,73.307,0,0,1,3.589-25.82,71.252,71.252,0,0,1,12.5-22.886A65.592,65.592,0,0,1,156.946,182.461Z" transform="translate(-113.265 -174.344)" fill="#3a424a"/>
        <g id="Group_15" data-name="Group 15" transform="translate(30.586)">
          <path id="Path_29" data-name="Path 29" d="M184.018,197.367a3.554,3.554,0,0,1-3.44-1.691s5.2-3.922,8.866-3.367a18.169,18.169,0,0,1,6.122,2.283S187.411,197.308,184.018,197.367Z" transform="translate(-179.094 -180.077)" fill="#3a424a"/>
          <path id="Path_30" data-name="Path 30" d="M177.239,173.946c-.834,2.833.785,3.956.785,3.956s4.85-4.216,6.186-8.015a43.087,43.087,0,0,0,1.727-7S178.314,170.295,177.239,173.946Z" transform="translate(-177 -162.885)" fill="#3a424a"/>
        </g>
        <g id="Group_16" data-name="Group 16" transform="translate(19.699 10.306)">
          <path id="Path_31" data-name="Path 31" d="M159.648,221.439a3.468,3.468,0,0,1-3.622-.924s4.022-4.861,7.56-5.067a17.088,17.088,0,0,1,6.207.967S162.834,220.682,159.648,221.439Z" transform="translate(-153.836 -203.946)" fill="#3a424a"/>
          <path id="Path_32" data-name="Path 32" d="M150.755,200.176c-.157,2.91,1.617,3.663,1.617,3.663s3.627-5.073,3.995-9.007a42.1,42.1,0,0,0-.029-7.094S150.957,196.426,150.755,200.176Z" transform="translate(-150.745 -187.739)" fill="#3a424a"/>
        </g>
        <g id="Group_17" data-name="Group 17" transform="translate(11.544 23.158)">
          <path id="Path_33" data-name="Path 33" d="M142.007,249.448a3.38,3.38,0,0,1-3.675-.13s2.865-5.573,6.2-6.513a16.309,16.309,0,0,1,6.11-.358S144.917,248.039,142.007,249.448Z" transform="translate(-135.324 -232.532)" fill="#3a424a"/>
          <path id="Path_34" data-name="Path 34" d="M131.146,231.965c.445,2.862,2.3,3.218,2.3,3.218s2.445-5.7,1.956-9.586a41.311,41.311,0,0,0-1.559-6.864S130.573,228.278,131.146,231.965Z" transform="translate(-131.079 -218.733)" fill="#3a424a"/>
        </g>
        <g id="Group_18" data-name="Group 18" transform="translate(5.904 37.939)">
          <path id="Path_35" data-name="Path 35" d="M130.91,279.879a3.354,3.354,0,0,1-3.6.664s1.734-6.057,4.776-7.686a16.123,16.123,0,0,1,5.838-1.652S133.477,277.876,130.91,279.879Z" transform="translate(-123.23 -264.228)" fill="#3a424a"/>
          <path id="Path_36" data-name="Path 36" d="M118.023,267.857c.972,2.7,2.846,2.647,2.846,2.647s1.3-6.087.068-9.774a39.846,39.846,0,0,0-2.869-6.351S116.77,264.378,118.023,267.857Z" transform="translate(-117.477 -254.38)" fill="#3a424a"/>
        </g>
        <g id="Group_19" data-name="Group 19" transform="translate(1.753 54.032)">
          <path id="Path_37" data-name="Path 37" d="M126.173,312.312a3.422,3.422,0,0,1-3.412,1.433s.627-6.313,3.3-8.564a16.576,16.576,0,0,1,5.4-2.877S128.333,309.791,126.173,312.312Z" transform="translate(-116.419 -298.524)" fill="#3a424a"/>
          <path id="Path_38" data-name="Path 38" d="M109.854,306.393c1.427,2.435,3.251,1.978,3.251,1.978s.2-6.249-1.675-9.589a37.577,37.577,0,0,0-3.964-5.593S108.015,303.254,109.854,306.393Z" transform="translate(-107.466 -293.189)" fill="#3a424a"/>
        </g>
        <g id="Group_20" data-name="Group 20" transform="translate(0 70.819)">
          <path id="Path_39" data-name="Path 39" d="M127.557,345.718c-1.312,2.285-3.1,2.149-3.1,2.149s-.454-6.338,1.781-9.129a17.588,17.588,0,0,1,4.789-3.994S129.248,342.773,127.557,345.718Z" transform="translate(-115.635 -334.3)" fill="#3a424a"/>
          <path id="Path_40" data-name="Path 40" d="M107.841,346.118c1.81,2.082,3.521,1.237,3.521,1.237s-.861-6.182-3.273-9.054a34.959,34.959,0,0,0-4.851-4.627S105.507,343.435,107.841,346.118Z" transform="translate(-103.238 -333.674)" fill="#3a424a"/>
        </g>
        <g id="Group_21" data-name="Group 21" transform="translate(2.18 83.981)">
          <path id="Path_41" data-name="Path 41" d="M136.661,376.953c-.9,2.531-2.68,2.786-2.68,2.786s-1.511-6.13.211-9.359a18.924,18.924,0,0,1,4.023-4.966S137.823,373.691,136.661,376.953Z" transform="translate(-123.054 -365.414)" fill="#3a424a"/>
          <path id="Path_42" data-name="Path 42" d="M115.1,383.657c2.126,1.653,3.661.451,3.661.451s-1.884-5.889-4.731-8.187a32.507,32.507,0,0,0-5.533-3.494S112.359,381.527,115.1,383.657Z" transform="translate(-108.495 -369.519)" fill="#3a424a"/>
        </g>
        <g id="Group_22" data-name="Group 22" transform="translate(7.489 95.801)">
          <path id="Path_43" data-name="Path 43" d="M151.615,405.591c-.447,2.68-2.148,3.317-2.148,3.317s-2.542-5.688-1.4-9.235a20.2,20.2,0,0,1,3.1-5.753S152.191,402.136,151.615,405.591Z" transform="translate(-136.794 -393.92)" fill="#3a424a"/>
          <path id="Path_44" data-name="Path 44" d="M129.695,418.35a2.978,2.978,0,0,0,3.673-.355s-2.867-5.37-6.051-7.009a30.762,30.762,0,0,0-6.018-2.23S126.637,416.855,129.695,418.35Z" transform="translate(-121.299 -402.604)" fill="#3a424a"/>
        </g>
        <g id="Group_23" data-name="Group 23" transform="translate(42.222 122.293)">
          <path id="Path_45" data-name="Path 45" d="M231.86,466.933c1.2,2.405.148,3.863.148,3.863s-5.464-3.164-6.594-6.645a18.925,18.925,0,0,1-.785-6.342S230.317,463.832,231.86,466.933Z" transform="translate(-216.502 -457.808)" fill="#3a424a"/>
          <path id="Path_46" data-name="Path 46" d="M218,488.791c2.6-.7,2.567-2.649,2.567-2.649s-5.834-2.047-9.384-1.161a32.5,32.5,0,0,0-6.123,2.308S214.651,489.692,218,488.791Z" transform="translate(-205.061 -473.583)" fill="#3a424a"/>
        </g>
        <g id="Group_24" data-name="Group 24" transform="translate(56.458 128.172)">
          <path id="Path_47" data-name="Path 47" d="M260.782,479.761c1.62,2.181.9,3.848.9,3.848s-5.861-2.115-7.624-5.4a20.2,20.2,0,0,1-1.991-6.226S258.694,476.95,260.782,479.761Z" transform="translate(-246.812 -471.987)" fill="#3a424a"/>
          <path id="Path_48" data-name="Path 48" d="M252.126,501.085a2.978,2.978,0,0,0,2.293-2.891s-5.857-1.661-9.246-.505a30.735,30.735,0,0,0-5.781,2.787S248.929,502.25,252.126,501.085Z" transform="translate(-239.393 -486.792)" fill="#3a424a"/>
        </g>
        <g id="Group_25" data-name="Group 25" transform="translate(17.693 106.785)">
          <path id="Path_49" data-name="Path 49" d="M176.959,431.745a4.218,4.218,0,0,1-1.509,3.716s-3.548-5.011-3.057-8.736a21.027,21.027,0,0,1,2.035-6.318S176.893,428.238,176.959,431.745Z" transform="translate(-161.383 -420.408)" fill="#3a424a"/>
          <path id="Path_50" data-name="Path 50" d="M155.89,450.08a3.093,3.093,0,0,0,3.562-1.152s-3.811-4.628-7.234-5.54a30.182,30.182,0,0,0-6.31-.875S152.6,449.287,155.89,450.08Z" transform="translate(-145.907 -433.347)" fill="#3a424a"/>
        </g>
        <g id="Group_26" data-name="Group 26" transform="translate(28.554 115.504)">
          <path id="Path_51" data-name="Path 51" d="M200.632,451.518a4.264,4.264,0,0,1-.487,4s-4.808-3.71-5.3-7.424a21.045,21.045,0,0,1,.354-6.664S199.633,448.191,200.632,451.518Z" transform="translate(-185.339 -441.435)" fill="#3a424a"/>
          <path id="Path_52" data-name="Path 52" d="M183.812,472.966A3.307,3.307,0,0,0,187,470.785s-4.966-3.265-8.537-3.107a31.166,31.166,0,0,0-6.363,1.057S180.371,473.209,183.812,472.966Z" transform="translate(-172.099 -456.793)" fill="#3a424a"/>
        </g>
        <g id="Group_27" data-name="Group 27" transform="translate(43.328 0.792)">
          <path id="Path_53" data-name="Path 53" d="M213.862,171.13a14.5,14.5,0,0,1-6.133.95,12.13,12.13,0,0,1,7.614-5.507,77.4,77.4,0,0,1,12.82-1.778S218.59,169.476,213.862,171.13Z" transform="translate(-207.729 -164.794)" fill="#3a424a"/>
        </g>
      </g>
    </g>
    <path id="Path_54" data-name="Path 54" d="M196.255,237.47v29.118c0,28.33,17.021,54.7,45.139,69.931h0c28.118-15.231,45.139-41.6,45.139-69.931V237.47Z" transform="translate(-54.447 -43.658)" fill="#062a4e"/>
    <path id="Path_55" data-name="Path 55" d="M196.255,237.47v29.118c0,28.33,17.021,54.7,45.139,69.931h0c28.118-15.231,45.139-41.6,45.139-69.931V237.47Z" transform="translate(-54.447 -43.658)" fill="#3a424a" stroke="#2abc4f" stroke-miterlimit="10" stroke-width="4"/>
    <path id="Path_56" data-name="Path 56" d="M197,315.763c.089-.321.329-.673.654-.629a.6.6,0,0,1,.425.368c.084.178.121.375.192.559a1.549,1.549,0,0,0,.758.828l.074.036c2.27.4,9.162,1.417,20.8-1.8,11.9-3.285,20.452-2.542,20.452-2.542l.155,2.432-.384,2.132c-.648-1.142-13.974-.8-20.586.758a54.279,54.279,0,0,1-20.586.884,4.727,4.727,0,0,1-1.1-.445,1.954,1.954,0,0,1-.309-.28A2.511,2.511,0,0,1,197,315.763Z" transform="translate(-54.835 -87.585)" fill="#2abc4f"/>
    <path id="Path_57" data-name="Path 57" d="M298.287,312.517l-.287,4.2a16.048,16.048,0,0,0-2.7-.448l2.207-3.754Z" transform="translate(-112.424 -87.586)" fill="#040505" opacity="0.12"/>
    <g id="Group_33" data-name="Group 33" transform="translate(159.361 229.952)">
      <g id="Group_30" data-name="Group 30" transform="translate(10.39 2.181)">
        <rect id="Rectangle_1" data-name="Rectangle 1" width="0.542" height="31.823" transform="translate(0 0.157) rotate(-16.843)" fill="#25a746"/>
      </g>
      <g id="Group_31" data-name="Group 31" transform="translate(0 2.172)">
        <rect id="Rectangle_2" data-name="Rectangle 2" width="32.183" height="0.542" transform="matrix(0.323, -0.946, 0.946, 0.323, 0, 30.458)" fill="#25a746"/>
      </g>
      <g id="Group_32" data-name="Group 32" transform="translate(9.385 0)">
        <path id="Path_58" data-name="Path 58" d="M261.217,325.891a1.267,1.267,0,0,1,1.266-1.266,1.265,1.265,0,0,1,0,2.531A1.267,1.267,0,0,1,261.217,325.891Zm.542,0a.723.723,0,1,0,.723-.723A.724.724,0,0,0,261.759,325.891Z" transform="translate(-261.217 -324.625)" fill="#25a746"/>
      </g>
    </g>
    <g id="Group_37" data-name="Group 37" transform="translate(193.713 229.952)">
      <g id="Group_34" data-name="Group 34" transform="translate(10.39 2.181)">
        <rect id="Rectangle_3" data-name="Rectangle 3" width="0.542" height="31.823" transform="translate(0 0.157) rotate(-16.843)" fill="#25a746"/>
      </g>
      <g id="Group_35" data-name="Group 35" transform="translate(0 2.172)">
        <rect id="Rectangle_4" data-name="Rectangle 4" width="32.183" height="0.542" transform="matrix(0.323, -0.946, 0.946, 0.323, 0, 30.458)" fill="#25a746"/>
      </g>
      <g id="Group_36" data-name="Group 36" transform="translate(9.385 0)">
        <path id="Path_59" data-name="Path 59" d="M344.063,325.891a1.267,1.267,0,0,1,1.265-1.266,1.265,1.265,0,1,1,0,2.531A1.267,1.267,0,0,1,344.063,325.891Zm.542,0a.723.723,0,1,0,.723-.723A.724.724,0,0,0,344.605,325.891Z" transform="translate(-344.063 -324.625)" fill="#25a746"/>
      </g>
    </g>
    <g id="Group_40" data-name="Group 40" transform="translate(190.6 195.654)">
      <g id="Group_39" data-name="Group 39" transform="translate(0)" clip-path="url(#clip-path)">
        <g id="Group_38" data-name="Group 38" transform="translate(-4.306 -3.604)">
          <rect id="Rectangle_5" data-name="Rectangle 5" width="2.334" height="32.288" transform="translate(24.08 0.449) rotate(45)" fill="#2abc4f"/>
          <rect id="Rectangle_6" data-name="Rectangle 6" width="2.334" height="44.944" transform="translate(31.78 0) rotate(45)" fill="#2abc4f"/>
          <rect id="Rectangle_7" data-name="Rectangle 7" width="2.334" height="49.687" transform="translate(39.109 1.63) rotate(45)" fill="#2abc4f"/>
          <rect id="Rectangle_8" data-name="Rectangle 8" width="2.334" height="53.908" transform="translate(46.399 2.368) rotate(45)" fill="#2abc4f"/>
          <rect id="Rectangle_9" data-name="Rectangle 9" width="2.334" height="43.963" transform="translate(47.597 9.422) rotate(45)" fill="#2abc4f"/>
        </g>
      </g>
    </g>
    <g id="Group_41" data-name="Group 41" transform="translate(143.697 201.877)">
      <path id="Path_60" data-name="Path 60" d="M246.514,259.006c0,.466.022.934-.007,1.4-.024.387-.153.732-.672.722-.489-.01-.621-.346-.632-.709-.026-.915-.024-1.832,0-2.747.008-.389.152-.746.649-.752s.639.349.661.739C246.533,258.105,246.514,258.556,246.514,259.006Z" transform="translate(-226.784 -256.918)" fill="#25a746"/>
      <path id="Path_61" data-name="Path 61" d="M213.9,269.946c.023-.6.349-.807.794-.641a1.2,1.2,0,0,1,.389.246c.675.632,1.341,1.271,2.01,1.909.307.293.432.622.122.97-.267.3-.656.255-1.053-.114-.663-.619-1.324-1.24-1.965-1.88A1.879,1.879,0,0,1,213.9,269.946Z" transform="translate(-208.469 -264.136)" fill="#25a746"/>
      <path id="Path_62" data-name="Path 62" d="M274.876,270a4.145,4.145,0,0,1-.406.577q-.968.95-1.963,1.874c-.395.368-.784.413-1.051.113-.309-.347-.187-.675.12-.968.68-.648,1.341-1.315,2.053-1.929a1.083,1.083,0,0,1,.781-.175C274.578,269.523,274.7,269.8,274.876,270Z" transform="translate(-242.057 -264.273)" fill="#25a746"/>
      <path id="Path_63" data-name="Path 63" d="M203.037,299.259c.507,0,1.014,0,1.521,0,.335,0,.611.112.645.449a.555.555,0,0,1-.53.677c-.66.044-1.324.044-1.986.053a5.452,5.452,0,0,1-1.253-.031c-.25-.057-.613-.331-.624-.523a.613.613,0,0,1,.706-.627C202.023,299.267,202.531,299.259,203.037,299.259Z" transform="translate(-200.81 -281.7)" fill="#25a746"/>
      <path id="Path_64" data-name="Path 64" d="M284.3,299.262h1.467c.333,0,.6.118.635.457a.555.555,0,0,1-.489.659,3.67,3.67,0,0,1-.671.063q-1.179.011-2.359,0c-.581-.006-.907-.218-.9-.559.012-.4.333-.618.9-.62C283.353,299.261,283.825,299.262,284.3,299.262Z" transform="translate(-248.324 -281.703)" fill="#25a746"/>
      <path id="Path_65" data-name="Path 65" d="M231.556,265.235c-.194.2-.338.474-.527.505a.843.843,0,0,1-.708-.231,11.041,11.041,0,0,1-.825-1.87.671.671,0,0,1,.3-.6c.2-.091.662-.054.734.072C230.906,263.77,231.2,264.476,231.556,265.235Z" transform="translate(-217.595 -260.47)" fill="#25a746"/>
      <path id="Path_66" data-name="Path 66" d="M260.127,265.687c-.6-.01-.9-.379-.742-.8.223-.59.485-1.169.766-1.736a.586.586,0,0,1,.841-.253.536.536,0,0,1,.3.753c-.237.551-.446,1.114-.72,1.647C260.474,265.491,260.221,265.609,260.127,265.687Z" transform="translate(-235.072 -260.372)" fill="#25a746"/>
      <path id="Path_67" data-name="Path 67" d="M207.067,284.94a.644.644,0,0,1,.874-.7,15.868,15.868,0,0,1,1.776.705.519.519,0,0,1,.316.742.591.591,0,0,1-.8.348c-.6-.223-1.2-.44-1.775-.7C207.267,285.244,207.145,285.023,207.067,284.94Z" transform="translate(-204.472 -272.886)" fill="#25a746"/>
      <path id="Path_68" data-name="Path 68" d="M282.257,284.946a1.615,1.615,0,0,1-.436.412c-.544.253-1.117.452-1.68.669a.6.6,0,0,1-.848-.34c-.175-.372.037-.617.363-.762.549-.245,1.106-.482,1.677-.677A.66.66,0,0,1,282.257,284.946Z" transform="translate(-246.712 -272.886)" fill="#25a746"/>
    </g>
    <path id="Path_69" data-name="Path 69" d="M217.707,288.335a12.155,12.155,0,1,1,24.023,2.62c.442-.058.87-.109,1.288-.157a13.386,13.386,0,1,0-24.623,4.438q.677-.029,1.409-.083A12.085,12.085,0,0,1,217.707,288.335Z" transform="translate(-66.282 -65.595)" fill="#2abc4f"/>
    <path id="Path_70" data-name="Path 70" d="M260.713,385.553c-.216.1-.454.114-.683.19a1.741,1.741,0,0,1,.271,1.288,1.551,1.551,0,0,1-.535,1.192l.215.069a.169.169,0,0,1,.066.3.451.451,0,0,1-.175.1.648.648,0,0,0-.454.528,2.541,2.541,0,0,0-.034.86c.007.072.061.064.1.075a3.686,3.686,0,0,1,.687.258.451.451,0,0,1,.067.036c.036.029.082.056.075.11s-.063.064-.105.079c-.452.162-.927.241-1.39.36-.541.138-1.091.244-1.626.4-1.006.289-2.033.491-3.042.764-.316.085-.632.167-.948.251a.229.229,0,0,1-.146-.006c-.925-.329-1.864-.613-2.789-.94q-.875-.308-1.76-.583a.955.955,0,0,1-.637-.566,2.263,2.263,0,0,1,0-1.941,1.316,1.316,0,0,1,.148-.2l-.222-.057c-.053-.014-.12-.019-.127-.084s.053-.092.1-.121a1.868,1.868,0,0,1,.454-.194c.112-.034.215-.085.322-.128.025-.01.047-.017.05-.049a1.806,1.806,0,0,0-.154-1.137.442.442,0,0,0-.251-.2.62.62,0,0,1-.259-.167.148.148,0,0,1,.066-.269c.165-.052.331-.1.492-.151a2.3,2.3,0,0,1-.354-1.976.908.908,0,0,1,.69-.736c.309-.069.629-.092.944-.136l1.952-.272c.378-.053.758-.09,1.132-.163.464-.09.933-.143,1.4-.211.571-.083,1.141-.162,1.712-.243a.258.258,0,0,1,.112.015c.416.127.839.235,1.249.38.8.284,1.628.49,2.435.758l.653.219a.142.142,0,0,1,.068.234.369.369,0,0,1-.2.132.655.655,0,0,0-.452.514,2.387,2.387,0,0,0-.046.86c0,.061.042.077.087.091.129.041.256.086.386.122a1.345,1.345,0,0,1,.462.263Zm-7.184,1.1c.016-.526.03-1.038.048-1.551,0-.074-.046-.077-.094-.094-.446-.16-.9-.292-1.346-.459-.751-.283-1.533-.477-2.281-.774-.262-.1-.541-.165-.805-.266a.37.37,0,0,0-.529.3,2.416,2.416,0,0,0-.028.808.781.781,0,0,0,.637.782c.869.252,1.747.47,2.609.748C252.322,386.334,252.918,386.481,253.53,386.653Zm1.314,2.533c.1.012.167-.062.249-.086.845-.246,1.7-.456,2.537-.729.594-.193,1.2-.339,1.807-.505a.382.382,0,0,0,.254-.176,1.782,1.782,0,0,0,.124-1.436c-.083-.254-.227-.3-.488-.223-.1.03-.189.082-.286.116-.766.269-1.548.493-2.31.775-.6.223-1.22.4-1.83.6-.054.017-.11.023-.107.112C254.815,388.153,254.828,388.671,254.844,389.187Zm-1.711,2.534c.017-.525.032-1.034.049-1.543,0-.048-.006-.076-.06-.093-.211-.065-.416-.148-.624-.223-.736-.266-1.49-.474-2.224-.748-.557-.208-1.13-.374-1.7-.556a.3.3,0,0,0-.358.115.742.742,0,0,0-.128.354,2.3,2.3,0,0,0,.058.906.542.542,0,0,0,.345.438c.4.119.8.228,1.193.353.85.271,1.723.463,2.57.747C252.542,391.566,252.834,391.636,253.133,391.721Zm-4.415-5.366a2.432,2.432,0,0,1,.123,1.261c-.01.089.019.111.1.131.9.235,1.8.432,2.694.688.947.272,1.919.451,2.862.742.083.026.091,0,.089-.071-.016-.466-.032-.933-.037-1.4,0-.1-.033-.143-.134-.164-1.1-.23-2.2-.427-3.293-.691-.554-.134-1.117-.236-1.676-.352C249.206,386.452,248.971,386.406,248.717,386.355Zm10.932-2.494a.121.121,0,0,0-.108-.008c-1.186.264-2.384.47-3.566.754-.674.162-1.357.287-2.037.423-.086.017-.107.05-.108.131-.009.463-.021.925-.038,1.387,0,.092.012.1.1.08.707-.191,1.421-.349,2.126-.549,1.021-.291,2.067-.489,3.084-.8.113-.034.229-.059.345-.083.071-.014.094-.037.082-.118a3.354,3.354,0,0,1-.027-.443A1.729,1.729,0,0,1,259.65,383.862Zm-6.249,7.863c.4-.12.793-.207,1.184-.318.989-.281,2-.479,2.985-.772.482-.143.975-.248,1.464-.364.081-.02.111-.049.1-.135a2.392,2.392,0,0,1,.125-1.252.4.4,0,0,0-.059,0c-.413.1-.833.156-1.243.274-.369.106-.753.155-1.129.238-.523.116-1.057.186-1.57.352-.192.062-.379.179-.6.094-.027-.01-.067.007-.1.016-.083.024-.163.056-.247.075q-.378.083-.758.156c-.08.015-.117.04-.118.135-.005.373-.025.746-.037,1.12C253.4,391.47,253.4,391.592,253.4,391.725Z" transform="translate(-84.528 -128.19)" fill="#25a746"/>
    <path id="Path_71" data-name="Path 71" d="M234.748,402.22c0,4.143,5.218,7.5,11.655,7.5s11.655-3.359,11.655-7.5Z" transform="translate(-76.978 -140.092)" fill="#2abc4f"/>
    <path id="Path_72" data-name="Path 72" d="M234.761,402.629a2.2,2.2,0,0,1-.013-.409h23.31a5.525,5.525,0,0,1-2.01,4.213Z" transform="translate(-76.976 -140.092)" fill="#040505" opacity="0.11"/>
    <g id="Group_42" data-name="Group 42" transform="translate(196.834 250.071)">
      <path id="Path_73" data-name="Path 73" d="M340.478,385.044q0-2.271,0-4.542c0-.918-.166-1.085-1.074-1.085-.929,0-1.858,0-2.787,0-.151,0-.375-.053-.388.159-.015.25.219.214.391.215.977,0,1.955.016,2.931-.007.409-.01.534.153.532.528-.009,1.672-.006,3.343,0,5.015,0,.207.005.351-.294.347-.316,0-.27-.181-.27-.367q0-2.058,0-4.116c0-.7-.131-.828-.831-.828h-3.379c.073-.187.085-.374.18-.432.288-.177.279-.436.28-.7,0-.363.008-.726,0-1.088a2.141,2.141,0,0,0-1.253-1.4.305.305,0,0,0-.047-.006c-.608.008-1.217,0-1.823.031a1.045,1.045,0,0,0-.967.739,6.66,6.66,0,0,0-.086,2.155.282.282,0,0,0,.132.188c.168.1.285.263.218.43-.08.2-.306.08-.463.085-.584.019-.735.154-.746.728a5.617,5.617,0,0,0,0,.756c.049.414-.13.632-.566.731v-2.013c0-.675,0-.678.662-.765.139-.018.265-.04.257-.209s-.157-.159-.284-.169c-.748-.058-1.033.192-1.034.935,0,1.64,0,3.28-.006,4.92,0,.156.116.374-.226.4-.527.044-.679.309-.529.8a1.263,1.263,0,0,0,1.309.894c3.107,0,6.215-.018,9.322.015a1.632,1.632,0,0,0,1.635-.868v-.663c-.106-.058-.221-.178-.317-.165C340.373,385.769,340.478,385.375,340.478,385.044Zm-1.579-4.3c.247,0,.217.184.217.338,0,.709,0,1.417,0,2.126,0,.724-.008,1.449,0,2.173,0,.227-.062.314-.3.29a3.152,3.152,0,0,0-.527,0c-.454.03-.922.092-.777-.616a.172.172,0,0,0-.192-.213c-.127.01-.183.109-.183.234,0,.063-.007.126,0,.189.027.263.007.454-.36.412-.27-.031-.561.045-.491-.392.023-.14.044-.364-.2-.347-.21.014-.21.221-.185.373.058.348-.133.365-.408.364-.991,0-.991,0-1.184-.95,0-.015-.01-.03-.014-.045-.182-.68-.385-1.366.522-1.727a.074.074,0,0,0,.034-.032c.41-.713.991-.474,1.55-.254a1.124,1.124,0,0,1,.731,1.248,1.465,1.465,0,0,0,.009.282.174.174,0,0,0,.2.16c.116,0,.15-.082.175-.184a1.618,1.618,0,0,0-1.1-1.907,12.492,12.492,0,0,1-1.357-.44c-.239-.111-.42-.2-.36-.5a.632.632,0,0,1,.54-.566C336.467,380.72,337.683,380.739,338.9,380.74Zm-4.691,1.219c-.2.124-.356.466-.617.327-.307-.164-.739-.331-.54-.894a1.989,1.989,0,0,0,.91.078c.114-.023.27-.152.334.011A.376.376,0,0,1,334.209,381.96Zm.833.3c-.179.156-.339.285-.488.427-.133.126-.248.249-.429.056-.206-.222.047-.272.144-.339C334.48,382.259,334.654,381.918,335.042,382.261Zm-1.16.806c-.026.124-.073.216-.209.231s-.2-.078-.22-.192.1-.165.172-.19C333.75,382.877,333.825,382.973,333.882,383.067Zm-.572-.477c.016.107-.09.155-.158.216a.176.176,0,0,1-.284-.013.525.525,0,0,0-.067-.066l-.566-.475C332.564,382.11,333.28,382.387,333.31,382.59Zm.282,1.086.131-.007c.115.617.231,1.233.344,1.85.026.139-.075.146-.176.146h-.661Zm3.057,2.4a4.58,4.58,0,0,1-3.073,0Zm-4.7-8.046a.856.856,0,0,1,.877-.91c.254-.016.51,0,.766,0v-.005c.223,0,.447,0,.67,0,.239,0,.452.022.48.325a.268.268,0,0,0,.2.243c.665.112.355.621.416.975.007.043-.058.137-.095.14-.081,0-.123-.059-.151-.146-.231-.715-.232-.7-.99-.575a2.578,2.578,0,0,1-1.044-.027c-.571-.138-.717-.046-.853.532-.028.118-.055.228-.194.2s-.078-.15-.082-.235C331.945,378.376,331.945,378.2,331.951,378.031Zm.189,1.155a.471.471,0,0,0,.446-.428c.012-.387.15-.415.5-.327a2.394,2.394,0,0,0,1.275-.029c.229-.068.379-.02.37.254a.49.49,0,0,0,.44.529c.224.051.276.265.146.333-.317.168-.271.471-.373.715a1.433,1.433,0,0,1-1.336.885,1.415,1.415,0,0,1-1.2-.81c-.128-.267-.07-.618-.423-.794C331.894,379.469,331.89,379.222,332.14,379.185Zm-1.012,1.941c.012-.39.012-.39.639-.389a.7.7,0,0,1,.736.314.43.43,0,0,1-.16.725c-.029.013-.061.02-.09.033C331.113,382.328,331.09,382.314,331.128,381.127Zm-.963,4.044a3.778,3.778,0,0,0,.005-.613v-.283c0-1.307.241-1.584,1.565-1.863a.306.306,0,0,1,.32.094c.328.284.545.694,1.02.82.165.044.141.261.113.421-.1.54-.2,1.08-.291,1.621-.037.216-.128.335-.377.3a2.529,2.529,0,0,0-.479,0c-.389.019-.794.074-.667-.537a.164.164,0,0,0-.2-.2c-.153.027-.174.156-.179.291-.009.209.108.46-.312.461C330.281,385.68,330.092,385.6,330.165,385.171Zm10.683,1.24a.907.907,0,0,1-.938.588c-1.6-.009-3.2,0-4.806,0q-2.379,0-4.758,0a.91.91,0,0,1-.976-.665c-.037-.182-.015-.295.225-.293,1.105.009,2.211.007,3.316,0,.176,0,.24.084.317.221a.876.876,0,0,0,.836.451q1.057-.012,2.114,0a.865.865,0,0,0,.837-.447.356.356,0,0,1,.364-.226c1.074.007,2.147.012,3.22,0C340.931,386.03,340.942,386.182,340.848,386.411Z" transform="translate(-328.956 -375.242)" fill="#25a746"/>
      <path id="Path_74" data-name="Path 74" d="M351.943,373.144c-1.185.033-2.371.012-3.557.012-.148.242-.4.418-.385.756.024.408.008.819,0,1.229a.589.589,0,0,0,.2.508.593.593,0,0,1,.278.633.34.34,0,0,0,.178.4.306.306,0,0,0,.407-.15,1.641,1.641,0,0,1,1.715-.64c.254.022.512.006.768,0a.724.724,0,0,0,.784-.552l.083-.01v-1.7C352.511,373.228,352.352,373.133,351.943,373.144Zm.035,1.9c.009.339-.151.488-.492.479-.319-.008-.641.018-.958-.006a1.472,1.472,0,0,0-1.6.636c-.039-.318-.027-.6-.378-.724-.142-.051-.16-.219-.159-.367,0-.346.008-.692,0-1.038-.01-.362.158-.5.524-.5q1.294.021,2.588,0c.358-.006.489.146.48.479S351.97,374.7,351.979,375.042Z" transform="translate(-340.104 -373.143)" fill="#25a746"/>
    </g>
    <g id="Group_43" data-name="Group 43" transform="translate(124.654 323.14)">
      <path id="Path_82" data-name="Path 82" d="M-116.55-36.149v.67h-10.528v-.67h.87A2.624,2.624,0,0,0-124-37.036a5.519,5.519,0,0,0,.435-2.791V-55.7a8.136,8.136,0,0,0-.236-2.464,1.633,1.633,0,0,0-.743-.779,3.434,3.434,0,0,0-1.667-.435h-.87v-.67h10.528v.67h-.888a2.6,2.6,0,0,0-2.193.888,5.326,5.326,0,0,0-.453,2.791v15.874a8.136,8.136,0,0,0,.236,2.464,1.622,1.622,0,0,0,.761.779,3.333,3.333,0,0,0,1.649.435Zm.417-23.9h6.668l15.022,18.428v-14.17a4.876,4.876,0,0,0-.507-2.827,2.686,2.686,0,0,0-2.12-.761h-.852v-.67h8.553v.67h-.87a2.5,2.5,0,0,0-2.211.942,5.5,5.5,0,0,0-.4,2.646v20.712H-93.5l-16.2-19.788v15.131a5.027,5.027,0,0,0,.489,2.827,2.721,2.721,0,0,0,2.12.761h.87v.67h-8.553v-.67h.852a2.517,2.517,0,0,0,2.229-.942,5.5,5.5,0,0,0,.4-2.646V-56.824a11.2,11.2,0,0,0-1.622-1.649,5.955,5.955,0,0,0-1.622-.743,5.776,5.776,0,0,0-1.595-.163Zm44.3-.562v8.5h-.67a10.587,10.587,0,0,0-1.169-3.9,6.08,6.08,0,0,0-2.4-2.3,6.642,6.642,0,0,0-3.225-.852,4.387,4.387,0,0,0-3.117,1.151,3.5,3.5,0,0,0-1.232,2.618,3.1,3.1,0,0,0,.779,2.048q1.123,1.359,5.346,3.624a36.94,36.94,0,0,1,4.7,2.836,6.916,6.916,0,0,1,1.939,2.328,6.135,6.135,0,0,1,.68,2.809,6.36,6.36,0,0,1-2.165,4.811,7.842,7.842,0,0,1-5.572,2.02,11.8,11.8,0,0,1-2.011-.163,20.534,20.534,0,0,1-2.328-.661,10.44,10.44,0,0,0-2.238-.571.949.949,0,0,0-.716.272,2.165,2.165,0,0,0-.39,1.123h-.67v-8.426h.67a11.91,11.91,0,0,0,1.268,3.959A6.093,6.093,0,0,0-81.913-37.2a7.557,7.557,0,0,0,3.6.87,5.115,5.115,0,0,0,3.579-1.2,3.7,3.7,0,0,0,1.314-2.827,3.833,3.833,0,0,0-.5-1.83A5.454,5.454,0,0,0-75.471-43.9a44.427,44.427,0,0,0-3.86-2.31,37.442,37.442,0,0,1-4.485-2.818,7.6,7.6,0,0,1-2.02-2.319,5.754,5.754,0,0,1-.689-2.791A6.049,6.049,0,0,1-84.5-58.7a7.231,7.231,0,0,1,5.164-1.912,10.361,10.361,0,0,1,4.15.96,4.269,4.269,0,0,0,1.432.453,1.079,1.079,0,0,0,.77-.281,2.242,2.242,0,0,0,.48-1.133Zm20.6,16.906h-9.513l-1.667,3.878a6.139,6.139,0,0,0-.616,2.138,1.242,1.242,0,0,0,.535.988,4.671,4.671,0,0,0,2.31.553v.67h-7.737v-.67a4.169,4.169,0,0,0,1.993-.707,11.1,11.1,0,0,0,2.048-3.533l8.643-20.222h.634l8.553,20.44a9.317,9.317,0,0,0,1.875,3.2,3.823,3.823,0,0,0,2.347.824v.67h-9.694v-.67a3.634,3.634,0,0,0,1.984-.489,1.262,1.262,0,0,0,.516-1.015,7.513,7.513,0,0,0-.725-2.519Zm-.507-1.341-4.168-9.93-4.276,9.93Zm17.921-13.663v9.658h4.476a3.189,3.189,0,0,0,2.256-.68,4.5,4.5,0,0,0,.951-2.691h.67V-44.1h-.67a4.857,4.857,0,0,0-.371-2.1,2.35,2.35,0,0,0-.979-1.006,4.043,4.043,0,0,0-1.857-.335h-4.476v7.719a8.136,8.136,0,0,0,.236,2.464,1.622,1.622,0,0,0,.761.779,3.434,3.434,0,0,0,1.667.435h.888v.67H-40.807v-.67h.87a2.624,2.624,0,0,0,2.211-.888,5.519,5.519,0,0,0,.435-2.791V-55.7a8.136,8.136,0,0,0-.236-2.464,1.633,1.633,0,0,0-.743-.779,3.367,3.367,0,0,0-1.667-.435h-.87v-.67h18.284l.236,5.4h-.634a7.426,7.426,0,0,0-1.1-2.528,3.6,3.6,0,0,0-1.54-1.169,8.224,8.224,0,0,0-2.836-.362Z" transform="translate(137.244 60.611)" fill="#2abc4f"/>
      <path id="Path_83" data-name="Path 83" d="M-139.933-29.284h-6.374l-1.117,2.6a4.113,4.113,0,0,0-.413,1.433.832.832,0,0,0,.358.662,3.129,3.129,0,0,0,1.548.37v.449h-5.184v-.449a2.794,2.794,0,0,0,1.336-.474,7.437,7.437,0,0,0,1.372-2.368l5.791-13.55h.425l5.731,13.7a6.243,6.243,0,0,0,1.257,2.143,2.562,2.562,0,0,0,1.572.552v.449h-6.5v-.449a2.435,2.435,0,0,0,1.329-.328.845.845,0,0,0,.346-.68,5.034,5.034,0,0,0-.486-1.688Zm-.34-.9-2.793-6.653-2.865,6.653Zm21.891-10.429.376,5.6h-.376a7.045,7.045,0,0,0-2.149-3.618,5.235,5.235,0,0,0-3.351-1.1,5.453,5.453,0,0,0-2.962.832,5.5,5.5,0,0,0-2.082,2.653,11.816,11.816,0,0,0-.759,4.529,9.617,9.617,0,0,0,.716,3.873,5.367,5.367,0,0,0,2.155,2.513,6.2,6.2,0,0,0,3.284.874,5.7,5.7,0,0,0,2.829-.686,9.325,9.325,0,0,0,2.7-2.726l.376.243a8.644,8.644,0,0,1-2.89,3.217,7.314,7.314,0,0,1-3.922,1.02,7.423,7.423,0,0,1-6.338-3.035,8.678,8.678,0,0,1-1.676-5.318,9.444,9.444,0,0,1,1.1-4.529,7.994,7.994,0,0,1,3.041-3.2,8.217,8.217,0,0,1,4.231-1.135,7.755,7.755,0,0,1,3.521.874,1.91,1.91,0,0,0,.728.267.8.8,0,0,0,.571-.231,1.892,1.892,0,0,0,.449-.911Zm12.991,11.328h-6.374l-1.117,2.6a4.114,4.114,0,0,0-.413,1.433.832.832,0,0,0,.358.662,3.129,3.129,0,0,0,1.548.37v.449h-5.184v-.449a2.794,2.794,0,0,0,1.336-.474,7.438,7.438,0,0,0,1.372-2.368l5.791-13.55h.425l5.731,13.7a6.243,6.243,0,0,0,1.257,2.143,2.562,2.562,0,0,0,1.572.552v.449h-6.5v-.449a2.435,2.435,0,0,0,1.329-.328.845.845,0,0,0,.346-.68,5.034,5.034,0,0,0-.486-1.688Zm-.34-.9-2.793-6.653-2.865,6.653Zm7.346,6.411v-.449h.619a1.635,1.635,0,0,0,1.481-.668,3.805,3.805,0,0,0,.267-1.8V-37.321a3.4,3.4,0,0,0-.34-1.93,1.784,1.784,0,0,0-1.408-.534h-.619v-.449h6.7a14.636,14.636,0,0,1,5.615.838,6.681,6.681,0,0,1,3.1,2.793A8.614,8.614,0,0,1-81.8-32.088a8.238,8.238,0,0,1-2.088,5.743q-2.343,2.574-7.139,2.574Zm4.7-1.19a12.4,12.4,0,0,0,2.586.34A6.14,6.14,0,0,0-86.426-26.6a7.526,7.526,0,0,0,1.858-5.366,7.517,7.517,0,0,0-1.858-5.379A6.271,6.271,0,0,0-91.2-39.312a10.31,10.31,0,0,0-2.489.352Zm18.03-14.375v6.508h3.618a2.949,2.949,0,0,0,1.882-.425,2.735,2.735,0,0,0,.7-1.967H-69v5.731h-.449a6.266,6.266,0,0,0-.34-1.542,1.52,1.52,0,0,0-.716-.668,3.657,3.657,0,0,0-1.53-.243h-3.618v5.427a5.041,5.041,0,0,0,.1,1.329.764.764,0,0,0,.34.376,2.065,2.065,0,0,0,.923.14H-71.5a7.566,7.566,0,0,0,2.028-.194,3.024,3.024,0,0,0,1.214-.765,9.343,9.343,0,0,0,1.542-2.27h.486l-1.421,4.128H-80.343v-.449h.583a2.309,2.309,0,0,0,1.1-.279,1.021,1.021,0,0,0,.528-.583,5.714,5.714,0,0,0,.14-1.591v-10.7A3.541,3.541,0,0,0-78.3-39.3a1.881,1.881,0,0,0-1.457-.486h-.583v-.449h12.688l.182,3.606h-.474a5.689,5.689,0,0,0-.565-1.785,1.939,1.939,0,0,0-.917-.741,5.5,5.5,0,0,0-1.712-.182ZM-55.49-23.772l-6.362-13.853v11a3.368,3.368,0,0,0,.328,1.894,1.8,1.8,0,0,0,1.421.51h.583v.449h-5.731v-.449h.583a1.673,1.673,0,0,0,1.481-.631,3.684,3.684,0,0,0,.267-1.773V-37.382a3.762,3.762,0,0,0-.243-1.578,1.347,1.347,0,0,0-.625-.589,3.354,3.354,0,0,0-1.463-.237v-.449h4.662l5.974,12.882,5.876-12.882h4.662v.449h-.571a1.687,1.687,0,0,0-1.493.631,3.684,3.684,0,0,0-.267,1.773v10.757a3.267,3.267,0,0,0,.34,1.894,1.8,1.8,0,0,0,1.421.51h.571v.449H-51.07v-.449h.583a1.654,1.654,0,0,0,1.481-.631,3.684,3.684,0,0,0,.267-1.773v-11l-6.35,13.853ZM-31.7-40.235h5.743v.449h-.316a2.477,2.477,0,0,0-.923.279,3.6,3.6,0,0,0-1.1.8,10.921,10.921,0,0,0-1.226,1.7l-3.97,6.253v4.128a3.267,3.267,0,0,0,.34,1.894,1.874,1.874,0,0,0,1.457.51h.534v.449h-6.993v-.449h.583a1.673,1.673,0,0,0,1.481-.631,3.684,3.684,0,0,0,.267-1.773v-3.9l-4.517-6.9a14.548,14.548,0,0,0-1.087-1.518,4.265,4.265,0,0,0-1.184-.728,1.619,1.619,0,0,0-.7-.121v-.449h7.042v.449h-.364a2.122,2.122,0,0,0-1.05.267.863.863,0,0,0-.48.8,3.842,3.842,0,0,0,.741,1.578L-34-31.833l3.23-5.075a3.755,3.755,0,0,0,.728-1.7,1.078,1.078,0,0,0-.176-.607,1.178,1.178,0,0,0-.5-.419,2.445,2.445,0,0,0-.983-.152Z" transform="translate(151.115 68.631)" fill="#2abc4f"/>
    </g>
    <path id="Path_75" data-name="Path 75" d="M196.412,235.709v29.6c0,28.8,17,55.6,45.074,71.081h0V235.709Z" transform="translate(-54.17 -42.59)" fill="#fff" opacity="0.21"/>
    <g id="Group_44" data-name="Group 44" transform="translate(192.121 262.128)">
      <path id="Path_76" data-name="Path 76" d="M317.594,402.22c0,4.143,5.218,7.5,11.655,7.5s11.655-3.359,11.655-7.5Z" transform="translate(-317.592 -402.22)" fill="#2abc4f"/>
      <path id="Path_77" data-name="Path 77" d="M317.606,402.629a2.237,2.237,0,0,1-.013-.409H340.9a5.526,5.526,0,0,1-2.01,4.213Z" transform="translate(-317.59 -402.22)" fill="#040505" opacity="0.11"/>
    </g>
    <g id="Group_45" data-name="Group 45" transform="translate(186.975 224.868)">
      <path id="Path_78" data-name="Path 78" d="M350.112,315.737c-.092-.321-.34-.673-.676-.629a.618.618,0,0,0-.439.368c-.087.178-.125.375-.2.559a1.57,1.57,0,0,1-.783.828l-.076.036c-2.347.4-9.473,1.416-21.5-1.8a72.643,72.643,0,0,0-21.257-2.7v2.749l.351,1.973c.67-1.142,14.447-.8,21.282.758a57.971,57.971,0,0,0,21.282.884,4.994,4.994,0,0,0,1.142-.445,2.011,2.011,0,0,0,.319-.28A2.451,2.451,0,0,0,350.112,315.737Z" transform="translate(-305.179 -312.363)" fill="#25a746"/>
      <path id="Path_79" data-name="Path 79" d="M307.437,312.517l.287,4.2a16.056,16.056,0,0,1,2.7-.448l-2.207-3.754Z" transform="translate(-306.501 -312.453)" fill="#040505" opacity="0.12"/>
    </g>
    <g id="Group_46" data-name="Group 46" transform="translate(184.254 212.922)">
      <path id="Path_80" data-name="Path 80" d="M301.338,342.9h-.055c-1.5,0-2.7-1.907-2.665-4.224,0,0,.992-55.118,1.366-55.117h2.456c.372,0,1.562,55.085,1.562,55.085C304.048,340.969,302.842,342.9,301.338,342.9Z" transform="translate(-298.617 -283.554)" fill="#25a746"/>
      <path id="Path_81" data-name="Path 81" d="M306.242,283.554h-1.13V342.9h.028c1.5,0,2.709-1.927,2.664-4.256C307.8,338.639,306.614,283.554,306.242,283.554Z" transform="translate(-302.419 -283.554)" fill="#2abc4f"/>
    </g>
  </g>
</svg>
